<?xml version="1.0" encoding="UTF-8" standalone="yes"?>
<!-- Created with sK1/UniConvertor (http://sk1project.org/) -->
<svg xmlns="http://www.w3.org/2000/svg" xmlns:xlink="http://www.w3.org/1999/xlink"
  width="595.276pt" height="841.89pt" viewBox="0 0 595.276 841.89"
  fill-rule="evenodd">
<g>
<path style="stroke:#4f0000; stroke-width:0.1; stroke-linejoin:round; stroke-linecap:round; fill:none" d="M 20.4865 829.325C 20.4748 829.286 20.4605 829.266 20.448 829.252C 20.4356 829.237 20.425 829.229 20.4005 829.208C 20.376 829.187 20.3377 829.155 20.3043 829.137C 20.2709 829.118 20.2425 829.113 20.1948 829.103C 20.1471 829.094 20.0801 829.079 20.0131 829.064C 19.9461 829.049 19.8791 829.034 19.7241 829.013C 19.5691 828.991 19.3262 828.963 19.1331 828.965C 18.94 828.968 18.7967 829.001 18.6593 829.034C 18.5218 829.066 18.39 829.097 18.2934 829.125C 18.1967 829.153 18.1352 829.177 18.0586 829.21C 17.9821 829.244 17.8905 829.286 17.817 829.32C 17.7434 829.354 17.6878 829.379 17.6326 829.406C 17.5773 829.432 17.5223 829.46 17.4683 829.489C 17.4144 829.518 17.3613 829.548 17.3025 829.582C 17.2437 829.616 17.1791 829.653 17.1152 829.692C 17.0514 829.73 16.9884 829.77 16.9295 829.816C 16.8706 829.862 16.8159 829.915 16.7672 829.961C 16.7184 830.008 16.6756 830.049 16.6289 830.086C 16.5822 830.123 16.5316 830.156 16.4846 830.193C 16.4375 830.229 16.3942 830.27 16.3433 830.318C 16.2925 830.365 16.2342 830.419 16.1732 830.469C 16.1123 830.519 16.0487 830.563 15.9811 830.604C 15.9136 830.644 15.8421 830.68 15.7747 830.714C 15.7072 830.747 15.6436 830.779 15.5814 830.813C 15.5191 830.848 15.4582 830.885 15.3972 830.922C 15.3362 830.958 15.2752 830.995 15.2257 831.025C 15.1761 831.054 15.138 831.077 15.104 831.104C 15.0701 831.132 15.0402 831.163 15.0134 831.198C 14.9866 831.234 14.9629 831.272 14.9323 831.322C 14.9018 831.371 14.8644 831.432 14.8257 831.491C 14.7869 831.551 14.7467 831.61 14.7071 831.669C 14.6674 831.728 14.6283 831.788 14.5983 831.833C 14.5683 831.879 14.5476 831.91 14.5259 831.942C 14.5042 831.973 14.4817 832.003 14.4608 832.035C 14.4399 832.066 14.4207 832.099 14.3996 832.134C 14.3784 832.17 14.3553 832.21 14.334 832.25C 14.3128 832.29 14.2934 832.332 14.2722 832.372C 14.251 832.413 14.228 832.452 14.2071 832.488C 14.1861 832.524 14.1672 832.556 14.1455 832.585C 14.1238 832.614 14.0992 832.641 14.0674 832.659C 14.0355 832.677 13.9964 832.687 13.9655 832.694C 13.9346 832.702 13.9119 832.708 13.881 832.708C 13.8502 832.708 13.8113 832.702 13.7832 832.691C 13.7552 832.679 13.7381 832.662 13.7192 832.643C 13.7002 832.623 13.6795 832.603 13.6612 832.569C 13.643 832.536 13.6271 832.489 13.6253 832.454C 13.6235 832.419 13.6357 832.396 13.6475 832.372C 13.6594 832.349 13.6709 832.327 13.6835 832.303C 13.696 832.279 13.7096 832.254 13.7232 832.231C 13.7369 832.208 13.7505 832.187 13.7737 832.151C 13.7968 832.114 13.8293 832.063 13.8634 832.022C 13.8975 831.981 13.9331 831.95 13.9626 831.911C 13.9921 831.872 14.0154 831.824 14.0507 831.753C 14.0861 831.681 14.1335 831.584 14.1521 831.515C 14.1708 831.445 14.1607 831.403 14.1199 831.362C 14.079 831.321 14.0075 831.282 13.9626 831.257C 13.9176 831.232 13.8994 831.222 13.8801 831.213C 13.8608 831.205 13.8406 831.198 13.8204 831.191C 13.8002 831.185 13.7801 831.179 13.7345 831.165C 13.6889 831.152 13.6179 831.132 13.5464 831.126C 13.4748 831.12 13.4028 831.13 13.3309 831.138C 13.259 831.146 13.1872 831.152 13.1172 831.159C 13.0473 831.165 12.9792 831.171 12.9156 831.19C 12.852 831.21 12.7928 831.243 12.7324 831.272C 12.6721 831.301 12.6107 831.326 12.5649 831.345C 12.5191 831.364 12.4891 831.376 12.4698 831.397C 12.4505 831.417 12.4421 831.445 12.445 831.474C 12.4478 831.503 12.4621 831.533 12.4709 831.551C 12.4797 831.569 12.4831 831.576 12.487 831.583C 12.4909 831.59 12.4951 831.597 12.4994 831.604C 12.5036 831.61 12.5079 831.617 12.5267 831.647C 12.5456 831.677 12.5791 831.729 12.6136 831.781C 12.6481 831.834 12.6835 831.885 12.7168 831.938C 12.7501 831.991 12.7811 832.045 12.8077 832.091C 12.8343 832.138 12.8564 832.176 12.8771 832.216C 12.8979 832.255 12.9173 832.296 12.9344 832.337C 12.9515 832.379 12.9663 832.42 12.9812 832.463C 12.9961 832.505 13.0111 832.547 13.0095 832.589C 13.008 832.631 12.9898 832.673 12.963 832.704C 12.9362 832.735 12.9008 832.757 12.8629 832.78C 12.825 832.803 12.7847 832.827 12.7472 832.839C 12.7097 832.85 12.6751 832.849 12.6404 832.831C 12.6057 832.813 12.5709 832.777 12.5379 832.743C 12.505 832.71 12.4739 832.678 12.4425 832.645C 12.4111 832.612 12.3793 832.578 12.3534 832.542C 12.3274 832.505 12.3073 832.466 12.277 832.408C 12.2468 832.349 12.2065 832.272 12.164 832.196C 12.1214 832.12 12.0767 832.046 12.0272 831.974C 11.9778 831.903 11.9237 831.834 11.876 831.774C 11.8283 831.714 11.787 831.661 11.7449 831.609C 11.7028 831.556 11.6598 831.503 11.6179 831.451C 11.576 831.399 11.5352 831.349 11.4945 831.298C 11.4537 831.248 11.413 831.197 11.265 831.058C 11.117 830.919 10.8618 830.691 10.718 830.565C 10.5742 830.439 10.5417 830.414 10.5093 830.39C 10.4769 830.365 10.4445 830.34 10.3627 830.275C 10.2809 830.21 10.1497 830.105 10.0483 830.014C 9.94686 829.923 9.87525 829.846 9.81094 829.777C 9.74662 829.707 9.6896 829.646 9.62743 829.591C 9.56526 829.536 9.49793 829.487 9.42585 829.444C 9.35377 829.401 9.27693 829.365 9.21687 829.336C 9.15681 829.308 9.11353 829.287 9.07196 829.263C 9.0304 829.238 8.99056 829.21 8.95074 829.182C 8.91092 829.155 8.87112 829.127 8.81981 829.092C 8.7685 829.057 8.70566 829.015 8.64389 828.97C 8.58211 828.925 8.52139 828.878 8.45306 828.846C 8.38473 828.813 8.30879 828.796 8.25309 828.783C 8.19739 828.77 8.16193 828.762 8.12563 828.753C 8.08932 828.744 8.05217 828.734 8.01581 828.731C 7.97945 828.727 7.94389 828.73 7.85392 828.737C 7.76395 828.743 7.61957 828.754 7.47559 828.761C 7.33162 828.768 7.18803 828.772 7.04477 828.759C 6.9015 828.746 6.75856 828.717 6.67717 828.7C 6.59579 828.684 6.57597 828.68 6.53039 828.678C 6.48481 828.676 6.41347 828.677 6.36887 828.681C 6.32427 828.686 6.30641 828.694 6.27874 828.707C 6.25108 828.72 6.21361 828.737 6.17685 828.754C 6.1401 828.771 6.10406 828.787 6.07357 828.814C 6.04307 828.842 6.01813 828.88 5.9855 828.931C 5.95287 828.981 5.91255 829.044 5.88676 829.11C 5.86097 829.176 5.84971 829.245 5.8402 829.315C 5.83069 829.385 5.82292 829.455 5.81512 829.526C 5.80733 829.596 5.79951 829.667 5.80363 829.728C 5.80775 829.789 5.82382 829.84 5.85 829.905C 5.87619 829.97 5.91249 830.049 5.9488 830.129C 5.9851 830.208 6.02141 830.288 6.08385 830.497C 6.14628 830.707 6.23485 831.047 6.28492 831.269C 6.335 831.491 6.34657 831.595 6.35814 831.7C 6.36972 831.804 6.38129 831.909 6.40074 831.994C 6.42018 832.08 6.4475 832.147 6.47522 832.222C 6.50294 832.298 6.53105 832.381 6.58221 832.532C 6.63336 832.684 6.70756 832.903 6.82855 833.088C 6.94954 833.273 7.11733 833.423 7.24334 833.585C 7.36935 833.747 7.45358 833.921 7.55032 834.12C 7.64705 834.32 7.75629 834.545 7.95123 834.708C 8.14618 834.872 8.42685 834.974 8.68415 835.036C 8.94146 835.099 9.17541 835.123 9.31136 835.137C 9.4473 835.15 9.48525 835.154 9.53516 835.155C 9.58507 835.155 9.64696 835.152 9.6794 835.161C 9.71185 835.171 9.71486 835.192 9.71933 835.224C 9.72379 835.256 9.72971 835.297 9.70654 835.319C 9.68336 835.341 9.6311 835.342 9.59112 835.349C 9.55115 835.356 9.52345 835.368 9.4718 835.391C 9.42014 835.414 9.34452 835.447 9.26995 835.483C 9.19539 835.518 9.12188 835.556 9.04739 835.592C 8.97291 835.627 8.89744 835.661 8.8098 835.7C 8.72215 835.739 8.62232 835.784 8.53003 835.837C 8.43773 835.89 8.35297 835.952 8.28115 836.03C 8.20933 836.108 8.15046 836.202 8.0992 836.283C 8.04794 836.365 8.00429 836.434 7.95993 836.504C 7.91556 836.573 7.87049 836.641 7.83997 836.717C 7.80945 836.793 7.79349 836.876 7.7765 836.965C 7.75951 837.053 7.74149 837.147 7.73597 837.239C 7.73044 837.331 7.73742 837.423 7.7621 837.511C 7.78678 837.599 7.82916 837.684 7.88243 837.791C 7.9357 837.898 7.99985 838.028 8.06504 838.156C 8.13022 838.285 8.19644 838.413 8.26419 838.54C 8.33194 838.667 8.40122 838.794 8.45195 838.886C 8.50268 838.979 8.53486 839.037 8.59006 839.126C 8.64526 839.215 8.72347 839.334 8.79259 839.426C 8.86172 839.518 8.92175 839.582 8.95177 839.614C 8.98178 839.647 8.98178 839.647 9.20382 839.647C 9.42585 839.648 9.86991 839.65 10.0919 839.651C 10.314 839.652 10.314 839.652 10.3487 839.615C 10.3834 839.578 10.4527 839.505 10.5521 839.407C 10.6514 839.309 10.7807 839.187 10.8785 839.093C 10.9764 838.998 11.0429 838.931 11.0953 838.878C 11.1476 838.825 11.1859 838.786 11.2261 838.749C 11.2663 838.711 11.3084 838.674 11.3449 838.634C 11.3814 838.594 11.4122 838.55 11.4755 838.459C 11.5388 838.369 11.6346 838.232 11.7279 838.093C 11.8213 837.955 11.9122 837.815 12.0045 837.676C 12.0968 837.536 12.1904 837.398 12.2409 837.324C 12.2915 837.249 12.299 837.238 12.3094 837.225C 12.3197 837.212 12.333 837.198 12.345 837.19C 12.3571 837.183 12.3678 837.183 12.391 837.182C 12.4142 837.182 12.4499 837.181 12.4826 837.193C 12.5153 837.204 12.5452 837.228 12.5627 837.258C 12.5802 837.288 12.5853 837.324 12.5903 837.36C 12.5954 837.396 12.6004 837.431 12.6013 837.467C 12.6023 837.503 12.5992 837.539 12.5971 837.575C 12.595 837.611 12.5938 837.647 12.5897 837.681C 12.5855 837.714 12.5784 837.746 12.5744 837.778C 12.5705 837.81 12.5698 837.842 12.5695 837.874C 12.5693 837.906 12.5697 837.939 12.5637 837.998C 12.5577 838.058 12.5454 838.144 12.5318 838.231C 12.5181 838.318 12.503 838.404 12.4899 838.49C 12.4768 838.577 12.4658 838.664 12.4548 838.75C 12.4439 838.836 12.4332 838.921 12.424 839.006C 12.4149 839.091 12.4075 839.176 12.3998 839.261C 12.3921 839.346 12.3842 839.432 12.3795 839.482C 12.3749 839.532 12.3735 839.547 12.3745 839.562C 12.3755 839.578 12.3789 839.594 12.3811 839.608C 12.3833 839.622 12.3843 839.635 12.3848 839.641C 12.3853 839.648 12.3853 839.648 12.6317 839.637C 12.8781 839.626 13.371 839.605 13.6174 839.594C 13.8638 839.584 13.8638 839.584 13.8638 839.584C 13.8638 839.584 13.8638 839.584 13.8472 839.441C 13.8306 839.299 13.7973 839.013 13.7807 838.871C 13.7641 838.728 13.7641 838.728 13.7572 838.679C 13.7503 838.631 13.7366 838.533 13.723 838.435C 13.7093 838.337 13.6958 838.24 13.6827 838.142C 13.6696 838.044 13.6569 837.946 13.6461 837.863C 13.6353 837.779 13.6264 837.711 13.632 837.633C 13.6377 837.556 13.658 837.469 13.691 837.408C 13.724 837.347 13.7696 837.31 13.8153 837.274C 13.861 837.237 13.9067 837.2 13.9586 837.196C 14.0104 837.191 14.0685 837.219 14.1296 837.282C 14.1907 837.345 14.2549 837.444 14.3171 837.539C 14.3792 837.635 14.4393 837.728 14.484 837.811C 14.5286 837.894 14.5579 837.967 14.5973 838.045C 14.6366 838.122 14.686 838.203 14.7541 838.314C 14.8221 838.426 14.9088 838.568 15.0121 838.739C 15.1154 838.91 15.2354 839.109 15.3979 839.27C 15.5604 839.431 15.7655 839.553 15.8681 839.615C 15.9706 839.676 15.9706 839.676 16.1633 839.676C 16.3559 839.677 16.7412 839.679 16.9339 839.68C 17.1265 839.68 17.1265 839.68 17.1474 839.649C 17.1682 839.617 17.21 839.554 17.2642 839.473C 17.3184 839.392 17.3851 839.294 17.4336 839.224C 17.482 839.153 17.5123 839.111 17.549 839.06C 17.5858 839.008 17.6291 838.947 17.6778 838.89C 17.7265 838.833 17.7807 838.779 17.827 838.721C 17.8733 838.663 17.9117 838.599 17.9632 838.514C 18.0147 838.43 18.0793 838.323 18.1403 838.215C 18.2013 838.106 18.2587 837.995 18.3162 837.885C 18.3737 837.774 18.4313 837.664 18.4871 837.556C 18.543 837.449 18.5971 837.345 18.616 837.241C 18.6349 837.137 18.6186 837.033 18.5857 836.931C 18.5529 836.829 18.5037 836.728 18.4701 836.659C 18.4364 836.59 18.4185 836.554 18.4006 836.516C 18.3827 836.478 18.3649 836.439 18.3426 836.405C 18.3203 836.37 18.2935 836.34 18.2424 836.283C 18.1913 836.226 18.1159 836.142 18.0287 836.074C 17.9414 836.006 17.8424 835.953 17.7449 835.898C 17.6475 835.843 17.5515 835.786 17.4629 835.734C 17.3743 835.681 17.293 835.633 17.2134 835.581C 17.1338 835.53 17.056 835.476 16.9777 835.422C 16.8995 835.369 16.8209 835.316 16.7736 835.284C 16.7262 835.252 16.71 835.242 16.7038 835.23C 16.6975 835.218 16.7012 835.205 16.713 835.196C 16.7247 835.187 16.7444 835.183 16.7727 835.177C 16.801 835.172 16.8379 835.164 16.8749 835.157C 16.9119 835.15 16.9492 835.143 16.9864 835.137C 17.0237 835.131 17.061 835.126 17.0796 835.123C 17.0983 835.121 17.0983 835.121 17.175 835.106C 17.2517 835.092 17.4052 835.063 17.4819 835.048C 17.5587 835.034 17.5587 835.034 17.5802 835.025C 17.6016 835.016 17.6446 834.997 17.6871 834.978C 17.7296 834.958 17.7717 834.938 17.8137 834.917C 17.8557 834.897 17.8977 834.876 17.9187 834.866C 17.9396 834.856 17.9396 834.856 18.0909 834.749C 18.2422 834.643 18.5447 834.431 18.696 834.325C 18.8473 834.219 18.8473 834.219 18.8628 834.206C 18.8783 834.194 18.9093 834.169 18.9394 834.143C 18.9696 834.116 18.9988 834.088 19.026 834.059C 19.0533 834.03 19.0785 833.999 19.1495 833.915C 19.2204 833.83 19.337 833.692 19.4106 833.532C 19.4842 833.372 19.5148 833.191 19.5597 833.017C 19.6047 832.844 19.6641 832.678 19.7416 832.494C 19.8191 832.309 19.9147 832.106 19.9888 831.893C 20.0629 831.681 20.1155 831.461 20.1701 831.243C 20.2246 831.025 20.2812 830.809 20.3095 830.701C 20.3378 830.592 20.3378 830.592 20.3642 830.462C 20.3906 830.332 20.4434 830.071 20.4698 829.941C 20.4962 829.811 20.4962 829.811 20.5005 829.784C 20.5047 829.757 20.5132 829.703 20.5207 829.635C 20.5282 829.567 20.5346 829.485 20.4865 829.325"/>
</g>
</svg>