<?xml version="1.0" encoding="UTF-8" standalone="yes"?>
<!-- Created with sK1/UniConvertor (http://sk1project.org/) -->
<svg xmlns="http://www.w3.org/2000/svg" xmlns:xlink="http://www.w3.org/1999/xlink"
  width="595.276pt" height="841.89pt" viewBox="0 0 595.276 841.89"
  fill-rule="evenodd">
<g>
<path style="stroke:#000000; stroke-width:0.1; stroke-linejoin:round; stroke-linecap:round; fill:none" d="M 16.7996 829.893C 16.6836 829.784 16.5899 829.817 16.5262 829.839C 16.4624 829.86 16.4286 829.871 16.399 829.88C 16.3694 829.889 16.344 829.897 16.2579 829.922C 16.1717 829.948 16.0248 829.992 15.9379 830.019C 15.8511 830.046 15.8242 830.055 15.7974 830.065C 15.7706 830.075 15.7437 830.085 15.6625 830.108C 15.5814 830.132 15.4458 830.169 15.3694 830.19C 15.293 830.21 15.2758 830.214 15.2608 830.218C 15.2458 830.221 15.233 830.224 15.2187 830.224C 15.2044 830.224 15.1886 830.221 15.1786 830.213C 15.1685 830.206 15.1642 830.193 15.1601 830.182C 15.156 830.17 15.152 830.159 15.1311 830.113C 15.1102 830.066 15.0723 829.986 15.0454 829.927C 15.0185 829.868 15.0025 829.832 14.9945 829.814C 14.9865 829.795 14.9865 829.795 14.9636 829.745C 14.9406 829.694 14.8946 829.592 14.8716 829.541C 14.8486 829.49 14.8486 829.49 14.8485 829.49C 14.8484 829.49 14.8481 829.489 14.8393 829.469C 14.8305 829.45 14.8132 829.412 14.8046 829.393C 14.796 829.373 14.796 829.373 14.796 829.373C 14.796 829.373 14.796 829.373 14.7772 829.339C 14.7584 829.304 14.7208 829.234 14.686 829.159C 14.6512 829.083 14.6191 829.001 14.5905 828.929C 14.5619 828.856 14.5369 828.792 14.5202 828.75C 14.5036 828.708 14.4954 828.688 14.4788 828.662C 14.4622 828.636 14.4371 828.604 14.4202 828.582C 14.4032 828.56 14.3944 828.549 14.3745 828.531C 14.3546 828.513 14.3237 828.488 14.2894 828.477C 14.2551 828.466 14.2176 828.469 14.1915 828.471C 14.1655 828.474 14.151 828.475 14.1304 828.477C 14.1098 828.478 14.0831 828.48 14.0589 828.498C 14.0346 828.516 14.0129 828.549 13.9877 828.588C 13.9625 828.626 13.934 828.67 13.9164 828.711C 13.8987 828.753 13.892 828.792 13.8722 828.849C 13.8525 828.907 13.8197 828.983 13.7755 829.086C 13.7313 829.188 13.6757 829.318 13.6473 829.381C 13.6189 829.444 13.6177 829.442 13.6017 829.481C 13.5856 829.521 13.5546 829.603 13.5354 829.654C 13.5162 829.705 13.5088 829.724 13.4995 829.755C 13.4902 829.785 13.4791 829.825 13.4646 829.856C 13.4502 829.886 13.4324 829.906 13.4187 829.922C 13.405 829.937 13.3954 829.948 13.3845 829.95C 13.3736 829.951 13.3615 829.943 13.3507 829.937C 13.3399 829.93 13.3304 829.925 13.2996 829.908C 13.2688 829.891 13.2167 829.863 13.1628 829.837C 13.1089 829.811 13.0532 829.788 12.9993 829.763C 12.9453 829.737 12.8933 829.709 12.8477 829.685C 12.8021 829.661 12.7631 829.64 12.7533 829.636C 12.7436 829.632 12.7632 829.644 12.7149 829.619C 12.6665 829.593 12.5503 829.529 12.4685 829.484C 12.3867 829.439 12.3394 829.412 12.304 829.392C 12.2686 829.372 12.2452 829.359 12.2258 829.348C 12.2065 829.336 12.1912 829.328 12.176 829.319C 12.1607 829.311 12.1454 829.302 12.1309 829.294C 12.1163 829.286 12.1024 829.279 12.0924 829.274C 12.0824 829.269 12.0764 829.266 12.0689 829.263C 12.0614 829.259 12.0526 829.255 12.0439 829.252C 12.0352 829.249 12.0265 829.247 12.0222 829.246C 12.0179 829.245 12.0179 829.245 12.016 829.244C 12.0141 829.244 12.0103 829.243 12.0051 829.242C 11.9999 829.241 11.9934 829.239 11.9854 829.239C 11.9775 829.238 11.9682 829.238 11.9471 829.238C 11.926 829.238 11.8931 829.238 11.8639 829.243C 11.8348 829.248 11.8093 829.259 11.7929 829.267C 11.7764 829.274 11.769 829.279 11.7496 829.293C 11.7302 829.306 11.6989 829.327 11.6807 829.35C 11.6625 829.374 11.6575 829.398 11.6535 829.418C 11.6494 829.437 11.6463 829.451 11.6393 829.483C 11.6323 829.514 11.6215 829.563 11.6298 829.636C 11.6382 829.71 11.6658 829.807 11.6818 829.866C 11.6979 829.924 11.7024 829.943 11.707 829.962C 11.7115 829.981 11.7161 830 11.7216 830.019C 11.727 830.038 11.7334 830.056 11.7388 830.075C 11.7443 830.093 11.7487 830.112 11.7599 830.161C 11.7711 830.209 11.7891 830.286 11.8078 830.364C 11.8265 830.441 11.8459 830.519 11.8644 830.596C 11.8829 830.674 11.9005 830.751 11.9112 830.798C 11.9219 830.845 11.9256 830.862 11.9243 830.873C 11.923 830.884 11.9167 830.89 11.9073 830.894C 11.898 830.898 11.8856 830.901 11.862 830.905C 11.8383 830.91 11.8034 830.917 11.7688 830.925C 11.7341 830.933 11.6999 830.942 11.6654 830.951C 11.631 830.96 11.5964 830.968 11.55 830.98C 11.5036 830.991 11.4454 831.005 11.387 831.018C 11.3287 831.032 11.2702 831.045 11.2117 831.057C 11.1532 831.07 11.0946 831.083 11.044 831.094C 10.9935 831.104 10.951 831.114 10.9087 831.124C 10.8665 831.134 10.8245 831.145 10.7822 831.155C 10.74 831.165 10.6975 831.174 10.661 831.182C 10.6244 831.19 10.5937 831.196 10.5641 831.203C 10.5345 831.21 10.506 831.218 10.4791 831.232C 10.4522 831.245 10.4269 831.264 10.3935 831.289C 10.3602 831.315 10.3188 831.346 10.2944 831.401C 10.2699 831.455 10.2623 831.534 10.2774 831.588C 10.2926 831.642 10.3304 831.671 10.3745 831.705C 10.4187 831.739 10.4692 831.778 10.5195 831.818C 10.5698 831.857 10.6198 831.897 10.6705 831.935C 10.7212 831.974 10.7726 832.012 10.8388 832.061C 10.9051 832.109 10.9863 832.169 11.0658 832.23C 11.1453 832.292 11.2232 832.356 11.3031 832.417C 11.383 832.478 11.465 832.537 11.51 832.569C 11.5549 832.601 11.563 832.607 11.5729 832.613C 11.5829 832.619 11.5948 832.625 11.6003 832.634C 11.6058 832.643 11.605 832.656 11.604 832.671C 11.6029 832.687 11.6017 832.705 11.6032 832.723C 11.6047 832.741 11.609 832.759 11.6117 832.777C 11.6143 832.794 11.6152 832.812 11.6168 832.844C 11.6183 832.874 11.6205 832.919 11.621 832.963C 11.6214 833.007 11.6201 833.051 11.6198 833.095C 11.6195 833.139 11.6202 833.183 11.6206 833.208C 11.621 833.232 11.6211 833.237 11.6208 833.241C 11.6206 833.245 11.62 833.249 11.6191 833.253C 11.6181 833.257 11.6169 833.261 11.5807 833.282C 11.5445 833.303 11.4732 833.341 11.4154 833.375C 11.3577 833.408 11.3134 833.438 11.2731 833.465C 11.2328 833.493 11.1965 833.519 11.1453 833.555C 11.0941 833.592 11.028 833.639 10.9362 833.706C 10.8445 833.772 10.7271 833.858 10.6123 833.975C 10.4976 834.092 10.3854 834.241 10.3051 834.348C 10.2248 834.454 10.1762 834.519 10.0987 834.623C 10.0212 834.727 9.91477 834.872 9.83611 835.052C 9.75745 835.232 9.70661 835.447 9.67838 835.566C 9.65014 835.686 9.64453 835.709 9.63145 835.765C 9.61838 835.821 9.59786 835.908 9.58597 836.04C 9.57409 836.172 9.57084 836.349 9.57025 836.538C 9.56966 836.728 9.57174 836.929 9.5864 837.089C 9.60106 837.248 9.62831 837.366 9.6875 837.518C 9.74668 837.67 9.83781 837.858 9.89797 837.983C 9.95814 838.109 9.98735 838.172 10.0144 838.228C 10.0414 838.284 10.0663 838.332 10.0864 838.37C 10.1065 838.407 10.1218 838.434 10.1329 838.453C 10.1441 838.473 10.1511 838.485 10.1628 838.506C 10.1745 838.526 10.191 838.555 10.2099 838.586C 10.2288 838.616 10.2502 838.649 10.2728 838.683C 10.2955 838.718 10.3193 838.754 10.3577 838.811C 10.396 838.868 10.4488 838.946 10.5192 839.027C 10.5895 839.108 10.6775 839.193 10.7456 839.258C 10.8138 839.323 10.8621 839.37 10.913 839.413C 10.9639 839.457 11.0174 839.498 11.0725 839.537C 11.1277 839.576 11.1844 839.612 11.2607 839.66C 11.3371 839.709 11.433 839.77 11.5324 839.823C 11.6318 839.877 11.7346 839.923 11.8408 839.962C 11.9469 840 12.0563 840.031 12.1313 840.052C 12.2064 840.073 12.247 840.085 12.2878 840.096C 12.3286 840.108 12.3694 840.119 12.4106 840.129C 12.4517 840.139 12.4931 840.147 12.5353 840.155C 12.5776 840.163 12.6206 840.171 12.6639 840.179C 12.7072 840.186 12.7508 840.193 12.7945 840.197C 12.8381 840.202 12.8818 840.205 12.927 840.207C 12.9722 840.21 13.0189 840.213 13.0644 840.216C 13.1099 840.219 13.1541 840.223 13.2011 840.223C 13.2481 840.224 13.2978 840.222 13.3484 840.219C 13.399 840.217 13.4504 840.215 13.5015 840.208C 13.5527 840.202 13.6035 840.191 13.6544 840.183C 13.7053 840.174 13.7564 840.168 13.8147 840.16C 13.8729 840.153 13.9383 840.144 14.0023 840.13C 14.0662 840.116 14.1286 840.097 14.1909 840.077C 14.2532 840.058 14.3154 840.039 14.3814 840.019C 14.4473 839.999 14.517 839.977 14.5848 839.951C 14.6525 839.924 14.7183 839.892 14.7838 839.859C 14.8492 839.826 14.9143 839.793 14.9914 839.752C 15.0685 839.712 15.1576 839.666 15.2421 839.613C 15.3266 839.561 15.4065 839.503 15.4828 839.44C 15.5591 839.377 15.6319 839.309 15.7073 839.238C 15.7828 839.167 15.8609 839.094 15.9317 839.015C 16.0025 838.936 16.0659 838.852 16.1244 838.763C 16.1829 838.674 16.2363 838.581 16.2802 838.504C 16.3241 838.428 16.3583 838.368 16.3903 838.308C 16.4224 838.248 16.4522 838.186 16.4798 838.124C 16.5073 838.062 16.5326 837.998 16.5615 837.917C 16.5904 837.835 16.623 837.736 16.6543 837.635C 16.6856 837.533 16.7157 837.431 16.7382 837.328C 16.7608 837.224 16.7757 837.121 16.7929 837.013C 16.8101 836.906 16.8296 836.793 16.829 836.677C 16.8284 836.562 16.8076 836.442 16.7904 836.325C 16.7732 836.208 16.7594 836.095 16.7467 836.003C 16.7341 835.912 16.7225 835.843 16.7069 835.775C 16.6913 835.707 16.6716 835.64 16.6522 835.573C 16.6329 835.506 16.6139 835.439 16.5957 835.375C 16.5776 835.31 16.5603 835.249 16.5387 835.194C 16.5171 835.138 16.4913 835.088 16.4651 835.035C 16.4389 834.981 16.4122 834.924 16.3872 834.876C 16.3622 834.828 16.3388 834.789 16.315 834.746C 16.2912 834.704 16.2669 834.657 16.2443 834.619C 16.2216 834.581 16.2007 834.552 16.1797 834.523C 16.1587 834.494 16.1378 834.465 16.1142 834.437C 16.0906 834.409 16.0644 834.381 16.0462 834.352C 16.028 834.323 16.0179 834.293 16.0011 834.243C 15.9844 834.194 15.9609 834.124 15.939 834.054C 15.9171 833.984 15.8966 833.914 15.8768 833.843C 15.8571 833.773 15.838 833.702 15.8234 833.647C 15.8088 833.593 15.7986 833.555 15.7994 833.518C 15.8001 833.48 15.8119 833.444 15.8431 833.429C 15.8742 833.415 15.9247 833.423 15.9731 833.431C 16.0215 833.439 16.0679 833.447 16.1146 833.452C 16.1612 833.458 16.2081 833.461 16.255 833.464C 16.3019 833.468 16.3488 833.471 16.3934 833.474C 16.438 833.477 16.4802 833.48 16.5226 833.483C 16.5649 833.486 16.6074 833.488 16.6495 833.492C 16.6917 833.496 16.7336 833.5 16.7722 833.505C 16.8109 833.509 16.8464 833.513 16.8781 833.511C 16.9099 833.509 16.9379 833.501 16.9628 833.485C 16.9876 833.468 17.0094 833.443 17.0287 833.421C 17.0479 833.398 17.0646 833.379 17.0823 833.358C 17.0999 833.337 17.1184 833.314 17.1245 833.289C 17.1306 833.264 17.1242 833.236 17.1185 833.211C 17.1129 833.186 17.1079 833.164 17.101 833.143C 17.0941 833.121 17.0853 833.099 17.073 833.079C 17.0607 833.059 17.0449 833.042 16.9921 832.978C 16.9393 832.915 16.8496 832.806 16.7586 832.698C 16.6676 832.59 16.5753 832.483 16.4839 832.376C 16.3925 832.268 16.3018 832.159 16.244 832.09C 16.1862 832.021 16.1614 831.992 16.1365 831.963C 16.1116 831.933 16.0867 831.904 16.0617 831.875C 16.0367 831.845 16.0117 831.816 15.9953 831.797C 15.979 831.778 15.9714 831.769 15.9665 831.761C 15.9616 831.752 15.9594 831.744 15.9625 831.735C 15.9656 831.726 15.9741 831.716 15.9884 831.7C 16.0026 831.684 16.0228 831.662 16.0387 831.636C 16.0547 831.611 16.0665 831.583 16.0803 831.556C 16.0941 831.53 16.1099 831.504 16.1406 831.455C 16.1713 831.405 16.2171 831.331 16.2623 831.257C 16.3075 831.182 16.3522 831.108 16.3971 831.033C 16.442 830.959 16.4871 830.884 16.5288 830.815C 16.5705 830.747 16.6088 830.684 16.6579 830.607C 16.707 830.529 16.7668 830.438 16.805 830.375C 16.8433 830.312 16.8599 830.277 16.8766 830.241C 16.8932 830.206 16.9099 830.17 16.9201 830.124C 16.9304 830.078 16.9342 830.02 16.7996 829.893"/>
</g>
</svg>