<?xml version="1.0" encoding="UTF-8" standalone="yes"?>
<!-- Created with sK1/UniConvertor (http://sk1project.org/) -->
<svg xmlns="http://www.w3.org/2000/svg" xmlns:xlink="http://www.w3.org/1999/xlink"
  width="595.276pt" height="841.89pt" viewBox="0 0 595.276 841.89"
  fill-rule="evenodd">
<g>
<path style="stroke:#000000; stroke-width:0.1; stroke-linejoin:round; stroke-linecap:round; fill:none" d="M 23.8516 831.537C 23.8516 831.537 23.8447 831.719 23.8264 831.879C 23.8081 832.039 23.7785 832.176 23.7612 832.256C 23.744 832.335 23.7393 832.357 23.7325 832.387C 23.7258 832.417 23.717 832.455 23.6982 832.495C 23.6794 832.536 23.6506 832.579 23.6201 832.625C 23.5897 832.67 23.5576 832.718 23.5222 832.756C 23.4867 832.794 23.4479 832.821 23.4239 832.838C 23.4 832.855 23.3909 832.861 23.3733 832.873C 23.3558 832.885 23.3299 832.903 23.3053 832.917C 23.2806 832.931 23.2573 832.941 23.2154 832.957C 23.1735 832.973 23.113 832.994 23.0045 833.033C 22.8959 833.072 22.7393 833.128 22.6568 833.152C 22.5744 833.175 22.566 833.166 22.5317 833.177C 22.4974 833.188 22.4371 833.219 22.3817 833.248C 22.3262 833.276 22.2756 833.302 22.2292 833.331C 22.1829 833.359 22.1408 833.39 22.1061 833.416C 22.0713 833.441 22.044 833.461 22.0107 833.486C 21.9775 833.51 21.9385 833.539 21.9086 833.563C 21.8788 833.587 21.8581 833.606 21.845 833.619C 21.832 833.631 21.8266 833.636 21.8084 833.653C 21.7902 833.67 21.7592 833.7 21.7441 833.718C 21.7289 833.735 21.7296 833.741 21.7154 833.759C 21.7011 833.777 21.6719 833.807 21.6462 833.833C 21.6204 833.86 21.598 833.882 21.5721 833.909C 21.5462 833.935 21.5167 833.964 21.4781 833.993C 21.4396 834.021 21.392 834.049 21.3454 834.076C 21.2987 834.103 21.253 834.129 21.2101 834.148C 21.1672 834.167 21.1272 834.178 21.1026 834.185C 21.078 834.192 21.0688 834.195 21.0436 834.202C 21.0185 834.209 20.9772 834.22 20.9398 834.227C 20.9023 834.234 20.8685 834.237 20.844 834.239C 20.8195 834.24 20.8041 834.241 20.7961 834.241C 20.7881 834.242 20.7874 834.242 20.7866 834.242C 20.7859 834.242 20.7852 834.242 20.7844 834.242C 20.7837 834.242 20.7829 834.242 20.7813 834.247C 20.7797 834.251 20.7772 834.261 20.774 834.27C 20.7708 834.279 20.7669 834.288 20.7623 834.297C 20.7576 834.305 20.7522 834.313 20.745 834.323C 20.7378 834.333 20.7287 834.346 20.7208 834.353C 20.7128 834.359 20.706 834.36 20.692 834.369C 20.6781 834.378 20.6571 834.395 20.6466 834.404C 20.6361 834.413 20.6361 834.413 20.6215 834.426C 20.6069 834.438 20.5777 834.463 20.5528 834.491C 20.528 834.518 20.5074 834.549 20.4923 834.572C 20.4771 834.595 20.4673 834.61 20.4523 834.63C 20.4373 834.649 20.4169 834.674 20.4055 834.712C 20.3941 834.749 20.3917 834.8 20.3893 834.849C 20.3869 834.898 20.3847 834.945 20.3831 834.999C 20.3814 835.053 20.3805 835.114 20.3803 835.163C 20.3801 835.211 20.3808 835.247 20.382 835.314C 20.3833 835.381 20.3851 835.48 20.3869 835.574C 20.3887 835.668 20.3905 835.756 20.3913 835.852C 20.3921 835.948 20.392 836.051 20.3918 836.132C 20.3917 836.213 20.3916 836.271 20.3917 836.32C 20.3919 836.368 20.3922 836.407 20.3927 836.449C 20.3932 836.491 20.3937 836.536 20.3941 836.568C 20.3946 836.599 20.3948 836.616 20.4019 836.626C 20.4091 836.635 20.423 836.638 20.4348 836.638C 20.4465 836.638 20.456 836.635 20.4687 836.632C 20.4815 836.629 20.4975 836.626 20.5123 836.61C 20.5271 836.594 20.5407 836.567 20.5479 836.549C 20.5552 836.531 20.5562 836.523 20.5614 836.483C 20.5665 836.443 20.5757 836.371 20.5803 836.324C 20.5849 836.277 20.5849 836.256 20.5873 836.231C 20.5897 836.206 20.5945 836.177 20.5977 836.158C 20.601 836.138 20.6028 836.128 20.6043 836.118C 20.6058 836.107 20.6072 836.097 20.6083 836.086C 20.6093 836.076 20.6102 836.066 20.6117 836.047C 20.6131 836.028 20.6153 836.001 20.6203 835.958C 20.6253 835.915 20.6332 835.855 20.6442 835.792C 20.6552 835.729 20.6693 835.662 20.6784 835.619C 20.6874 835.575 20.6915 835.556 20.6977 835.532C 20.7039 835.508 20.7122 835.481 20.7263 835.457C 20.7404 835.432 20.7603 835.411 20.7797 835.391C 20.799 835.371 20.8179 835.351 20.8354 835.337C 20.8529 835.323 20.869 835.313 20.8836 835.308C 20.8982 835.303 20.9112 835.302 20.9236 835.301C 20.936 835.299 20.9478 835.298 20.9684 835.297C 20.989 835.296 21.0186 835.295 21.0461 835.3C 21.0737 835.305 21.0993 835.316 21.1156 835.322C 21.1318 835.329 21.1386 835.332 21.1601 835.34C 21.1816 835.349 21.2177 835.362 21.2434 835.387C 21.2692 835.411 21.2845 835.446 21.2985 835.478C 21.3125 835.51 21.3252 835.538 21.3326 835.57C 21.34 835.601 21.3421 835.634 21.3417 835.661C 21.3413 835.689 21.3386 835.711 21.3335 835.751C 21.3284 835.791 21.3211 835.849 21.3166 835.893C 21.3121 835.938 21.3105 835.968 21.3048 836.038C 21.299 836.109 21.2892 836.22 21.2786 836.338C 21.2681 836.456 21.257 836.582 21.2298 836.67C 21.2026 836.759 21.1594 836.811 21.1326 836.843C 21.1059 836.876 21.0957 836.889 21.0834 836.905C 21.071 836.921 21.0566 836.94 21.0387 836.964C 21.0208 836.987 20.9993 837.017 20.9748 837.045C 20.9503 837.073 20.9227 837.099 20.9023 837.118C 20.882 837.138 20.8688 837.15 20.8425 837.17C 20.8162 837.189 20.7768 837.216 20.7385 837.237C 20.7002 837.258 20.663 837.273 20.6274 837.288C 20.5917 837.303 20.5577 837.318 20.5352 837.326C 20.5127 837.334 20.5018 837.335 20.4918 837.34C 20.4819 837.345 20.4728 837.353 20.4594 837.365C 20.446 837.377 20.4284 837.393 20.414 837.411C 20.3996 837.429 20.3886 837.45 20.3833 837.47C 20.378 837.49 20.3784 837.509 20.3789 837.531C 20.3794 837.553 20.38 837.579 20.3814 837.628C 20.3829 837.678 20.3852 837.752 20.3863 837.79C 20.3875 837.827 20.3875 837.827 20.3881 837.872C 20.3886 837.918 20.3898 838.008 20.39 838.162C 20.3903 838.315 20.3898 838.531 20.3892 838.728C 20.3886 838.924 20.3881 839.101 20.3878 839.193C 20.3875 839.285 20.3875 839.291 20.388 839.3C 20.3885 839.308 20.3896 839.319 20.3912 839.33C 20.3927 839.341 20.3949 839.353 20.3974 839.367C 20.3998 839.382 20.4026 839.398 20.4063 839.415C 20.41 839.433 20.4146 839.453 20.42 839.474C 20.4255 839.494 20.4318 839.516 20.4411 839.548C 20.4504 839.579 20.4627 839.621 20.4768 839.653C 20.4908 839.684 20.5066 839.704 20.5223 839.727C 20.538 839.75 20.5537 839.775 20.5759 839.81C 20.5981 839.846 20.6268 839.891 20.6481 839.923C 20.6693 839.955 20.683 839.973 20.6995 839.99C 20.7159 840.007 20.7352 840.024 20.7511 840.039C 20.7669 840.052 20.7792 840.063 20.7995 840.076C 20.8198 840.088 20.8481 840.102 20.8622 840.116C 20.8763 840.131 20.8763 840.146 20.8763 840.155C 20.8763 840.164 20.8763 840.168 20.8763 840.171C 20.8764 840.175 20.8764 840.178 20.8765 840.181C 20.8766 840.184 20.8767 840.188 20.8948 840.192C 20.9129 840.197 20.9491 840.203 20.9996 840.213C 21.0502 840.222 21.1151 840.235 21.206 840.254C 21.2968 840.273 21.4136 840.298 21.543 840.326C 21.6723 840.354 21.8143 840.385 21.9249 840.411C 22.0355 840.438 22.1148 840.461 22.1793 840.48C 22.2438 840.499 22.2936 840.514 22.3253 840.524C 22.357 840.534 22.3706 840.538 22.4067 840.543C 22.4428 840.548 22.5013 840.554 22.5571 840.576C 22.6129 840.599 22.6659 840.639 22.7093 840.671C 22.7528 840.704 22.7868 840.729 22.8073 840.752C 22.8278 840.775 22.8348 840.795 22.8393 840.811C 22.8437 840.828 22.8456 840.841 22.8484 840.861C 22.8513 840.881 22.8552 840.908 22.8498 840.932C 22.8443 840.957 22.8294 840.979 22.8189 840.995C 22.8084 841.011 22.8022 841.019 22.7862 841.043C 22.7701 841.066 22.7443 841.104 22.7098 841.128C 22.6754 841.153 22.6325 841.164 22.6017 841.173C 22.5709 841.181 22.5523 841.187 22.4761 841.211C 22.3999 841.235 22.2661 841.278 22.1486 841.305C 22.0311 841.333 21.9299 841.345 21.8793 841.351C 21.8288 841.358 21.8288 841.358 21.7485 841.367C 21.6682 841.376 21.5077 841.394 21.4165 841.405C 21.3252 841.415 21.3033 841.419 21.2463 841.424C 21.1894 841.43 21.0975 841.438 20.9624 841.449C 20.8272 841.46 20.6488 841.475 20.501 841.484C 20.3533 841.493 20.2362 841.497 20.093 841.498C 19.9499 841.499 19.7807 841.498 19.6961 841.497C 19.6115 841.497 19.6115 841.497 19.4721 841.496C 19.3327 841.495 19.0539 841.492 18.764 841.473C 18.4742 841.453 18.1734 841.416 17.949 841.388C 17.7247 841.36 17.5769 841.342 17.5437 841.339C 17.5106 841.336 17.5921 841.349 17.5665 841.339C 17.5409 841.329 17.4083 841.297 17.3305 841.278C 17.2527 841.26 17.2298 841.254 17.1853 841.248C 17.1408 841.241 17.0747 841.234 17.0107 841.212C 16.9467 841.19 16.8849 841.153 16.8429 841.128C 16.8009 841.103 16.7788 841.089 16.7572 841.075C 16.7356 841.06 16.7144 841.043 16.6997 841.022C 16.685 841 16.6768 840.973 16.6719 840.957C 16.6671 840.941 16.6655 840.936 16.6621 840.924C 16.6586 840.911 16.6532 840.892 16.654 840.871C 16.6547 840.851 16.6617 840.829 16.6709 840.8C 16.68 840.771 16.6915 840.736 16.7157 840.709C 16.74 840.683 16.7771 840.665 16.8056 840.652C 16.8342 840.639 16.8543 840.631 16.9054 840.609C 16.9564 840.586 17.0385 840.551 17.1219 840.525C 17.2054 840.499 17.2902 840.482 17.3581 840.469C 17.426 840.455 17.4769 840.443 17.548 840.427C 17.619 840.411 17.7102 840.391 17.775 840.374C 17.8398 840.358 17.8783 840.346 17.9562 840.328C 18.0341 840.311 18.1514 840.289 18.21 840.278C 18.2687 840.267 18.2687 840.267 18.2975 840.262C 18.3263 840.256 18.3838 840.245 18.4378 840.236C 18.4919 840.226 18.5423 840.218 18.5683 840.214C 18.5942 840.21 18.5957 840.21 18.5972 840.21C 18.5986 840.21 18.6001 840.209 18.6016 840.209C 18.603 840.209 18.6045 840.209 18.6051 840.195C 18.6058 840.181 18.6056 840.154 18.6062 840.14C 18.6067 840.125 18.6079 840.123 18.6085 840.122C 18.6092 840.121 18.6092 840.121 18.6114 840.119C 18.6136 840.117 18.6181 840.113 18.6399 840.096C 18.6616 840.079 18.7006 840.049 18.7258 840.026C 18.751 840.003 18.7623 839.988 18.7775 839.967C 18.7926 839.946 18.8115 839.919 18.8233 839.904C 18.8352 839.888 18.84 839.883 18.852 839.864C 18.864 839.845 18.8832 839.812 18.8993 839.785C 18.9153 839.757 18.9282 839.735 18.9405 839.715C 18.9527 839.696 18.9642 839.679 18.9742 839.662C 18.9842 839.646 18.9927 839.63 18.9992 839.617C 19.0057 839.605 19.0103 839.596 19.0144 839.587C 19.0185 839.579 19.0222 839.57 19.0253 839.562C 19.0285 839.553 19.031 839.544 19.0353 839.529C 19.0395 839.514 19.0453 839.493 19.0552 839.474C 19.065 839.455 19.0788 839.437 19.0861 839.384C 19.0935 839.331 19.0944 839.242 19.0955 839.137C 19.0966 839.031 19.0979 838.909 19.098 838.788C 19.0982 838.668 19.0971 838.549 19.0962 838.467C 19.0953 838.385 19.0945 838.339 19.094 838.312C 19.0935 838.285 19.0933 838.278 19.0929 838.266C 19.0924 838.253 19.0916 838.235 19.0873 838.222C 19.0829 838.208 19.0749 838.199 19.0665 838.19C 19.0581 838.18 19.0492 838.17 19.0357 838.163C 19.0221 838.155 19.0039 838.151 18.9883 838.145C 18.9727 838.14 18.9599 838.134 18.9263 838.118C 18.8927 838.102 18.8385 838.077 18.7763 838.05C 18.7142 838.023 18.6443 837.993 18.5959 837.963C 18.5476 837.932 18.5209 837.9 18.4888 837.861C 18.4568 837.823 18.4194 837.778 18.3895 837.74C 18.3596 837.703 18.3372 837.673 18.3163 837.626C 18.2954 837.578 18.276 837.514 18.255 837.443C 18.2339 837.372 18.2112 837.296 18.1934 837.222C 18.1756 837.148 18.1628 837.077 18.1545 836.971C 18.1461 836.864 18.1423 836.723 18.1392 836.609C 18.1361 836.495 18.1337 836.409 18.1362 836.343C 18.1387 836.277 18.1461 836.232 18.1679 836.193C 18.1897 836.153 18.2258 836.119 18.2588 836.088C 18.2919 836.057 18.3219 836.029 18.3536 836.006C 18.3853 835.983 18.4187 835.965 18.4585 835.961C 18.4983 835.956 18.5447 835.965 18.5724 835.97C 18.6002 835.976 18.6095 835.977 18.6309 835.982C 18.6523 835.987 18.6859 835.995 18.7169 836.015C 18.7479 836.036 18.7762 836.07 18.807 836.106C 18.8379 836.143 18.8711 836.182 18.886 836.232C 18.9008 836.282 18.8972 836.342 18.8977 836.44C 18.8983 836.538 18.9029 836.673 18.9059 836.762C 18.909 836.85 18.9104 836.892 18.9105 836.944C 18.9107 836.996 18.9096 837.058 18.9176 837.105C 18.9256 837.153 18.9427 837.186 18.9545 837.209C 18.9662 837.232 18.9726 837.244 18.98 837.255C 18.9875 837.266 18.9959 837.276 19.0083 837.278C 19.0207 837.281 19.037 837.278 19.0514 837.274C 19.0659 837.271 19.0785 837.268 19.0856 837.262C 19.0927 837.255 19.0942 837.244 19.095 837.235C 19.0958 837.226 19.096 837.219 19.0963 837.201C 19.0967 837.183 19.0972 837.155 19.0978 837.087C 19.0984 837.019 19.0991 836.911 19.0995 836.73C 19.0999 836.549 19.1002 836.295 19.1004 836.109C 19.1005 835.923 19.1006 835.805 19.0948 835.687C 19.0889 835.569 19.0771 835.451 19.0753 835.333C 19.0735 835.215 19.0818 835.097 19.0863 835.034C 19.0907 834.971 19.0913 834.962 19.0927 834.945C 19.0941 834.927 19.0962 834.9 19.0937 834.87C 19.0913 834.839 19.0843 834.805 19.0786 834.777C 19.0729 834.749 19.0684 834.728 19.0631 834.702C 19.0578 834.676 19.0516 834.645 19.0375 834.616C 19.0234 834.586 19.0015 834.558 18.986 834.537C 18.9705 834.517 18.9614 834.505 18.9472 834.491C 18.933 834.476 18.9138 834.459 18.8849 834.433C 18.856 834.407 18.8175 834.373 18.792 834.35C 18.7665 834.328 18.754 834.316 18.7447 834.308C 18.7353 834.3 18.729 834.295 18.7233 834.287C 18.7175 834.279 18.7122 834.269 18.709 834.263C 18.7058 834.257 18.7048 834.255 18.7038 834.253C 18.7029 834.251 18.7019 834.249 18.7011 834.247C 18.7003 834.245 18.6996 834.243 18.6877 834.24C 18.6759 834.238 18.6529 834.235 18.6286 834.23C 18.6042 834.225 18.5784 834.218 18.5511 834.21C 18.5239 834.202 18.4953 834.193 18.4717 834.185C 18.4482 834.178 18.4297 834.172 18.3966 834.161C 18.3636 834.15 18.316 834.134 18.2692 834.111C 18.2225 834.088 18.1766 834.057 18.1356 834.03C 18.0946 834.003 18.0586 833.979 18.0384 833.96C 18.0183 833.942 18.0141 833.929 17.9858 833.895C 17.9575 833.861 17.9052 833.806 17.8574 833.756C 17.8096 833.706 17.7664 833.661 17.7306 833.623C 17.6948 833.586 17.6666 833.556 17.6322 833.526C 17.5978 833.496 17.5573 833.465 17.5038 833.425C 17.4503 833.385 17.3838 833.334 17.3176 833.296C 17.2515 833.257 17.1856 833.23 17.1411 833.212C 17.0966 833.194 17.0735 833.185 17.0306 833.168C 16.9877 833.151 16.9252 833.127 16.8904 833.119C 16.8557 833.111 16.8487 833.119 16.7926 833.105C 16.7364 833.091 16.631 833.055 16.5389 833.023C 16.4468 832.992 16.3681 832.965 16.3163 832.944C 16.2644 832.924 16.2394 832.909 16.2181 832.896C 16.1969 832.883 16.1794 832.871 16.1661 832.862C 16.1528 832.853 16.1436 832.846 16.12 832.83C 16.0963 832.813 16.0582 832.787 16.0233 832.75C 15.9885 832.713 15.9569 832.666 15.9138 832.602C 15.8707 832.538 15.8161 832.457 15.7925 832.373C 15.7688 832.289 15.7761 832.202 15.7782 832.137C 15.7803 832.071 15.7773 832.027 15.7713 831.937C 15.7652 831.847 15.756 831.711 15.7499 831.589C 15.7439 831.467 15.7408 831.359 15.742 831.235C 15.7431 831.111 15.7485 830.971 15.7537 830.836C 15.7588 830.701 15.7638 830.57 15.7835 830.413C 15.8032 830.257 15.8376 830.074 15.8586 829.966C 15.8795 829.858 15.887 829.826 15.8919 829.804C 15.8969 829.782 15.8994 829.771 15.9023 829.766C 15.9051 829.76 15.9084 829.759 15.9099 829.752C 15.9114 829.744 15.9111 829.729 15.9108 829.712C 15.9105 829.695 15.9102 829.677 15.9074 829.659C 15.9046 829.641 15.8994 829.624 15.9002 829.609C 15.9011 829.595 15.908 829.584 15.9144 829.574C 15.9208 829.564 15.9266 829.555 15.9345 829.547C 15.9424 829.539 15.9525 829.533 15.9604 829.53C 15.9684 829.527 15.9742 829.526 16.0312 829.524C 16.0881 829.522 16.1962 829.517 16.3317 829.515C 16.4672 829.512 16.6301 829.51 16.7116 829.51C 16.793 829.509 16.793 829.509 16.8745 829.507C 16.956 829.505 17.1189 829.502 17.2264 829.501C 17.3338 829.499 17.3858 829.5 17.4965 829.501C 17.6071 829.502 17.7763 829.503 17.9825 829.504C 18.1887 829.506 18.4319 829.507 18.6154 829.506C 18.7989 829.506 18.9226 829.503 19.0673 829.501C 19.2119 829.5 19.3774 829.499 19.5648 829.498C 19.7521 829.497 19.9613 829.496 20.163 829.497C 20.3646 829.497 20.5587 829.499 20.6633 829.5C 20.768 829.501 20.7831 829.501 20.9982 829.502C 21.2132 829.502 21.6283 829.504 22.1052 829.508C 22.582 829.511 23.1208 829.517 23.3822 829.52C 23.6436 829.523 23.6276 829.523 23.6164 829.523C 23.6052 829.524 23.5988 829.524 23.6085 829.523C 23.6182 829.522 23.6441 829.521 23.6604 829.53C 23.6767 829.54 23.6836 829.561 23.6888 829.576C 23.6941 829.592 23.6977 829.603 23.6933 829.613C 23.6889 829.623 23.6764 829.631 23.6705 829.641C 23.6647 829.651 23.6655 829.661 23.6665 829.674C 23.6675 829.687 23.6687 829.702 23.6762 829.717C 23.6836 829.732 23.6973 829.747 23.7087 829.776C 23.7201 829.804 23.7293 829.845 23.7387 829.888C 23.7481 829.93 23.7577 829.974 23.7733 830.03C 23.7888 830.087 23.8104 830.156 23.8245 830.273C 23.8385 830.39 23.845 830.554 23.8492 830.659C 23.8534 830.763 23.8552 830.808 23.8584 830.904C 23.8616 831.001 23.8662 831.149 23.8516 831.537"/>
</g>
</svg>