<?xml version="1.0" encoding="UTF-8" standalone="yes"?>
<!-- Created with sK1/UniConvertor (http://sk1project.org/) -->
<svg xmlns="http://www.w3.org/2000/svg" xmlns:xlink="http://www.w3.org/1999/xlink"
  width="595.276pt" height="841.89pt" viewBox="0 0 595.276 841.89"
  fill-rule="evenodd">
<g>
<path style="stroke:#4f0000; stroke-width:0.1; stroke-linejoin:round; stroke-linecap:round; fill:none" d="M 16.1747 841.621C 16.1844 841.543 16.1956 841.448 16.1969 841.373C 16.1982 841.298 16.1895 841.243 16.1785 841.173C 16.1675 841.103 16.1541 841.017 16.142 840.978C 16.13 840.939 16.1194 840.946 16.1017 840.911C 16.084 840.876 16.0593 840.797 16.0292 840.703C 15.9991 840.608 15.9636 840.496 15.9453 840.416C 15.927 840.336 15.9259 840.287 15.8865 840.197C 15.8472 840.107 15.7695 839.976 15.7182 839.889C 15.667 839.802 15.642 839.759 15.6186 839.723C 15.5953 839.688 15.5736 839.658 15.5408 839.614C 15.508 839.57 15.464 839.511 15.4055 839.433C 15.3471 839.355 15.274 839.258 15.2312 839.209C 15.1884 839.16 15.1758 839.16 15.1441 839.125C 15.1123 839.09 15.0615 839.021 15.0104 838.951C 14.9592 838.882 14.9078 838.812 14.8672 838.748C 14.8266 838.685 14.7969 838.627 14.7523 838.541C 14.7077 838.454 14.6482 838.339 14.5969 838.239C 14.5455 838.14 14.5022 838.056 14.467 837.983C 14.4318 837.91 14.4048 837.849 14.3868 837.808C 14.3688 837.767 14.36 837.746 14.3351 837.689C 14.3103 837.632 14.2694 837.538 14.2387 837.467C 14.208 837.396 14.1876 837.349 14.1708 837.295C 14.1539 837.24 14.1408 837.179 14.1261 837.11C 14.1114 837.042 14.0953 836.966 14.0851 836.924C 14.0749 836.881 14.0706 836.871 14.0662 836.845C 14.0618 836.818 14.0573 836.776 14.054 836.745C 14.0507 836.714 14.0486 836.694 14.0421 836.667C 14.0357 836.64 14.0249 836.606 14.0274 836.577C 14.03 836.549 14.0459 836.527 14.0572 836.511C 14.0686 836.495 14.0755 836.485 14.0905 836.479C 14.1056 836.472 14.1288 836.468 14.1473 836.465C 14.1659 836.461 14.1797 836.458 14.2153 836.45C 14.2509 836.442 14.3083 836.429 14.3533 836.418C 14.3983 836.408 14.431 836.4 14.4748 836.393C 14.5187 836.387 14.5738 836.382 14.6136 836.378C 14.6534 836.374 14.6779 836.372 14.7339 836.362C 14.79 836.352 14.8776 836.333 15.009 836.306C 15.1404 836.279 15.3157 836.243 15.4687 836.211C 15.6216 836.179 15.7523 836.152 15.8504 836.132C 15.9484 836.112 16.0138 836.098 16.0677 836.085C 16.1216 836.072 16.1641 836.058 16.2389 836.035C 16.3137 836.012 16.4208 835.979 16.5095 835.951C 16.5981 835.923 16.6683 835.901 16.7385 835.859C 16.8088 835.816 16.8792 835.755 16.9401 835.702C 17.0011 835.648 17.0526 835.603 17.0955 835.555C 17.1384 835.508 17.1726 835.457 17.2023 835.413C 17.2319 835.369 17.257 835.332 17.2826 835.294C 17.3081 835.256 17.3342 835.217 17.3616 835.177C 17.389 835.136 17.4177 835.094 17.4418 835.046C 17.4659 834.997 17.4853 834.944 17.5136 834.865C 17.5419 834.787 17.5791 834.684 17.5898 834.587C 17.6004 834.49 17.5846 834.398 17.5695 834.311C 17.5543 834.223 17.5398 834.139 17.5236 834.045C 17.5073 833.951 17.4894 833.848 17.4645 833.76C 17.4396 833.672 17.4078 833.6 17.3714 833.519C 17.3351 833.437 17.2942 833.345 17.2689 833.288C 17.2435 833.231 17.2337 833.208 17.2067 833.148C 17.1798 833.088 17.1357 832.99 17.0747 832.88C 17.0137 832.77 16.9357 832.647 16.8861 832.569C 16.8364 832.491 16.8151 832.458 16.7827 832.408C 16.7503 832.358 16.7069 832.292 16.6458 832.21C 16.5847 832.127 16.5058 832.028 16.4222 831.923C 16.3385 831.818 16.25 831.707 16.165 831.6C 16.0799 831.494 15.9982 831.391 15.9055 831.294C 15.8127 831.197 15.7088 831.106 15.5542 830.971C 15.3997 830.836 15.1944 830.656 14.9839 830.532C 14.7733 830.408 14.5574 830.339 14.3766 830.282C 14.1959 830.225 14.0503 830.179 13.8589 830.118C 13.6675 830.058 13.4303 829.983 13.2173 829.941C 13.0044 829.899 12.8156 829.89 12.7008 829.885C 12.5859 829.88 12.545 829.878 12.4724 829.876C 12.3997 829.873 12.2955 829.869 12.1411 829.864C 11.9867 829.859 11.7821 829.853 11.5565 829.892C 11.3308 829.931 11.0841 830.015 10.9177 830.072C 10.7512 830.128 10.6651 830.158 10.545 830.203C 10.4249 830.249 10.2708 830.311 10.1125 830.403C 9.9542 830.495 9.7916 830.618 9.6484 830.727C 9.50521 830.835 9.38142 830.929 9.28386 831.018C 9.18631 831.108 9.115 831.194 9.01638 831.313C 8.91776 831.433 8.79183 831.586 8.66292 831.743C 8.534 831.9 8.40209 832.061 8.288 832.2C 8.17391 832.339 8.07764 832.456 7.98131 832.607C 7.88499 832.758 7.78861 832.942 7.71889 833.075C 7.64916 833.208 7.60608 833.291 7.54271 833.414C 7.47935 833.538 7.39571 833.704 7.31425 833.963C 7.2328 834.221 7.15353 834.574 7.09871 834.817C 7.0439 835.061 7.01354 835.196 6.97942 835.307C 6.94529 835.419 6.90741 835.507 6.90721 835.602C 6.90701 835.697 6.9445 835.799 6.98494 835.908C 7.02539 836.018 7.0688 836.136 7.14253 836.226C 7.21626 836.316 7.32032 836.378 7.37768 836.412C 7.43503 836.447 7.44567 836.453 7.47871 836.472C 7.51176 836.491 7.56721 836.523 7.61966 836.544C 7.67211 836.564 7.72156 836.572 7.77583 836.581C 7.83011 836.589 7.8892 836.598 7.97368 836.611C 8.05815 836.625 8.168 836.642 8.26131 836.644C 8.35461 836.647 8.43137 836.636 8.5082 836.627C 8.58504 836.619 8.66194 836.613 8.74716 836.606C 8.83239 836.599 8.92594 836.592 8.95055 836.594C 8.97515 836.596 8.93081 836.607 9.05608 836.614C 9.18136 836.62 9.47625 836.623 9.76769 836.625C 10.0591 836.627 10.3471 836.63 10.5939 836.624C 10.8406 836.619 11.046 836.606 11.161 836.599C 11.276 836.592 11.3006 836.591 11.3267 836.591C 11.3528 836.59 11.3804 836.589 11.3988 836.59C 11.4172 836.592 11.4263 836.595 11.4347 836.599C 11.4431 836.603 11.4507 836.609 11.4576 836.614C 11.4644 836.619 11.4706 836.624 11.4757 836.63C 11.4807 836.636 11.4846 836.644 11.4863 836.652C 11.488 836.66 11.4875 836.669 11.4868 836.679C 11.4861 836.69 11.4853 836.703 11.4759 836.719C 11.4666 836.736 11.4487 836.755 11.4386 836.766C 11.4286 836.777 11.4263 836.78 11.4038 836.805C 11.3813 836.831 11.3387 836.879 11.3101 836.917C 11.2816 836.955 11.2671 836.983 11.2396 837.025C 11.2122 837.067 11.1716 837.123 11.1269 837.185C 11.0822 837.247 11.0332 837.315 10.9965 837.375C 10.9598 837.434 10.9354 837.485 10.9096 837.541C 10.8839 837.598 10.8569 837.66 10.8159 837.755C 10.7749 837.849 10.7199 837.976 10.6915 838.097C 10.663 838.218 10.6612 838.333 10.66 838.426C 10.6588 838.52 10.6583 838.592 10.6579 838.666C 10.6574 838.741 10.6568 838.817 10.6625 838.888C 10.6681 838.958 10.6799 839.023 10.6976 839.12C 10.7152 839.217 10.7388 839.347 10.7627 839.478C 10.7867 839.61 10.811 839.743 10.836 839.858C 10.861 839.972 10.8868 840.068 10.9112 840.198C 10.9357 840.329 10.9588 840.495 10.9731 840.598C 10.9875 840.701 10.9931 840.742 10.999 840.787C 11.0049 840.832 11.0111 840.882 11.0108 840.939C 11.0105 840.997 11.0037 841.061 10.9952 841.142C 10.9866 841.223 10.9764 841.32 10.9505 841.388C 10.9247 841.457 10.8833 841.497 10.8638 841.531C 10.8444 841.565 10.8468 841.593 10.848 841.607C 10.8492 841.621 10.8492 841.621 12.1806 841.621C 13.512 841.621 16.1747 841.621 16.1747 841.621"/>
</g>
</svg>