<?xml version="1.0" encoding="UTF-8" standalone="yes"?>
<!-- Created with sK1/UniConvertor (http://sk1project.org/) -->
<svg xmlns="http://www.w3.org/2000/svg" xmlns:xlink="http://www.w3.org/1999/xlink"
  width="595.276pt" height="841.89pt" viewBox="0 0 595.276 841.89"
  fill-rule="evenodd">
<g>
<path style="stroke:#000000; stroke-width:0.1; stroke-linejoin:round; stroke-linecap:round; fill:none" d="M 9.34014 854.126C 9.34014 854.126 4.10319 854.126 1.48472 854.126C -1.13375 854.126 -1.13375 854.126 -1.12495 854.056C -1.11616 853.986 -1.09856 853.846 -1.07005 853.593C -1.04153 853.34 -1.00208 852.973 -0.901389 852.435C -0.800694 851.896 -0.63875 851.185 -0.508217 850.611C -0.377685 850.038 -0.278564 849.602 -0.15412 849.173C -0.0296758 848.744 0.120093 848.322 0.266505 847.899C 0.412917 847.476 0.555972 847.053 0.628866 846.838C 0.701759 846.622 0.704491 846.614 0.709676 846.599C 0.714861 846.584 0.7225 846.562 0.727824 846.536C 0.733148 846.509 0.736157 846.479 0.73919 846.448C 0.742222 846.418 0.745278 846.387 0.745116 846.361C 0.744954 846.334 0.741574 846.312 0.737477 846.288C 0.73338 846.263 0.728565 846.235 0.72537 846.217C 0.722176 846.198 0.720602 846.189 0.718912 846.179C 0.717222 846.169 0.715417 846.159 0.713634 846.148C 0.711852 846.138 0.710093 846.126 0.7075 846.11C 0.704907 846.093 0.701482 846.071 0.695972 846.035C 0.690463 845.998 0.68287 845.948 0.679444 845.896C 0.676019 845.843 0.67676 845.788 0.677477 845.733C 0.678195 845.679 0.678889 845.625 0.682639 845.579C 0.686389 845.533 0.693195 845.494 0.704167 845.454C 0.715139 845.414 0.730278 845.372 0.740741 845.344C 0.751203 845.315 0.756991 845.3 0.771805 845.271C 0.78662 845.242 0.810463 845.2 0.845625 845.166C 0.880787 845.132 0.927268 845.105 0.975625 845.077C 1.02398 845.049 1.07421 845.02 1.11083 845.009C 1.14745 844.999 1.17046 845.006 1.21016 845C 1.24986 844.994 1.30625 844.974 1.33488 844.964C 1.36352 844.954 1.3644 844.954 1.36528 844.954C 1.36616 844.953 1.36704 844.953 1.36789 844.953C 1.36875 844.952 1.36958 844.952 1.38595 844.946C 1.40231 844.939 1.43421 844.927 1.4585 844.907C 1.48278 844.887 1.49944 844.86 1.5141 844.834C 1.52875 844.809 1.54139 844.786 1.59271 844.693C 1.64403 844.6 1.73403 844.437 1.84822 844.239C 1.96241 844.04 2.10079 843.806 2.16998 843.689C 2.23917 843.572 2.23917 843.572 2.23917 843.572C 2.23917 843.572 2.23917 843.572 2.30734 843.465C 2.37551 843.358 2.51185 843.145 2.7094 842.911C 2.90694 842.678 3.16569 842.424 3.30681 842.286C 3.44792 842.148 3.47139 842.125 3.50389 842.097C 3.53639 842.07 3.57792 842.038 3.62893 842.015C 3.67995 841.991 3.74046 841.976 3.81692 841.957C 3.89338 841.938 3.98579 841.914 4.07259 841.919C 4.1594 841.925 4.2406 841.958 4.31477 841.989C 4.38894 842.021 4.45606 842.049 4.54509 842.087C 4.63412 842.126 4.74505 842.173 4.83551 842.23C 4.92597 842.286 4.99597 842.351 5.06704 842.418C 5.1381 842.485 5.21023 842.553 5.27873 842.618C 5.34722 842.683 5.41208 842.744 5.46347 842.801C 5.51486 842.858 5.55278 842.911 5.60884 842.981C 5.66491 843.051 5.73912 843.139 5.81042 843.223C 5.88171 843.307 5.95009 843.388 6.0056 843.461C 6.06111 843.535 6.10375 843.601 6.14697 843.668C 6.19018 843.735 6.23398 843.803 6.26741 843.855C 6.30083 843.907 6.32389 843.943 6.35025 843.993C 6.37662 844.043 6.4063 844.108 6.43977 844.163C 6.47324 844.218 6.51051 844.262 6.53785 844.295C 6.56519 844.327 6.58259 844.348 6.60132 844.363C 6.62005 844.378 6.64009 844.387 6.66535 844.401C 6.6906 844.416 6.72106 844.435 6.73815 844.446C 6.75523 844.457 6.75893 844.459 6.76257 844.462C 6.7662 844.464 6.76977 844.466 6.77326 844.468C 6.77676 844.471 6.78018 844.473 6.81935 844.497C 6.85852 844.521 6.93343 844.567 6.98016 844.587C 7.0269 844.607 7.04546 844.6 7.07572 844.614C 7.10597 844.627 7.14792 844.661 7.19727 844.701C 7.24662 844.741 7.30338 844.788 7.3434 844.84C 7.38343 844.893 7.40671 844.952 7.42257 844.993C 7.43843 845.034 7.44685 845.056 7.45613 845.08C 7.46542 845.105 7.47556 845.132 7.48896 845.167C 7.50236 845.202 7.51903 845.246 7.52424 845.296C 7.52944 845.345 7.52319 845.4 7.51771 845.448C 7.51222 845.496 7.5075 845.537 7.49822 845.565C 7.48894 845.592 7.47509 845.606 7.46407 845.643C 7.45306 845.68 7.44486 845.74 7.44076 845.77C 7.43667 845.8 7.43667 845.8 7.43646 845.802C 7.43625 845.803 7.43583 845.807 7.43532 845.811C 7.43481 845.815 7.43421 845.82 7.43326 845.829C 7.43231 845.839 7.43102 845.851 7.42931 845.87C 7.42759 845.889 7.42546 845.914 7.42458 845.941C 7.4237 845.967 7.42407 845.995 7.42491 846.057C 7.42574 846.12 7.42704 846.218 7.44403 846.311C 7.46102 846.405 7.4937 846.495 7.51259 846.548C 7.53148 846.601 7.53657 846.617 7.55069 846.663C 7.56481 846.708 7.58796 846.782 7.59766 846.812C 7.60736 846.843 7.60361 846.828 7.64553 846.998C 7.68745 847.168 7.77505 847.521 7.83407 847.759C 7.8931 847.997 7.92356 848.12 7.93803 848.174C 7.9525 848.228 7.95097 848.212 8.0016 848.395C 8.05222 848.579 8.155 848.961 8.22803 849.233C 8.30107 849.505 8.34435 849.666 8.37681 849.787C 8.40926 849.907 8.43088 849.988 8.45243 850.07C 8.47398 850.152 8.49546 850.235 8.53451 850.387C 8.57356 850.539 8.63019 850.758 8.67171 850.925C 8.71324 851.092 8.73968 851.205 8.77002 851.338C 8.80037 851.471 8.83463 851.623 8.8747 851.801C 8.91477 851.98 8.96065 852.184 8.99491 852.316C 9.02917 852.448 9.0518 852.508 9.07618 852.606C 9.10056 852.703 9.12667 852.838 9.16086 853.015C 9.19505 853.191 9.23731 853.41 9.2638 853.582C 9.29028 853.754 9.30097 853.88 9.34014 854.126"/>
</g>
</svg>