<?xml version="1.0" encoding="UTF-8" standalone="yes"?>
<!-- Created with sK1/UniConvertor (http://sk1project.org/) -->
<svg xmlns="http://www.w3.org/2000/svg" xmlns:xlink="http://www.w3.org/1999/xlink"
  width="595.276pt" height="841.89pt" viewBox="0 0 595.276 841.89"
  fill-rule="evenodd">
<g>
<path style="stroke:#4f0000; stroke-width:0.1; stroke-linejoin:round; stroke-linecap:round; fill:none" d="M 20.5463 835.603C 20.4362 835.923 20.3638 836.008 20.3175 836.062C 20.2713 836.115 20.2514 836.137 20.2111 836.18C 20.1707 836.224 20.1099 836.29 20.047 836.341C 19.9841 836.392 19.9191 836.427 19.8677 836.451C 19.8163 836.475 19.7785 836.488 19.5611 836.561C 19.3436 836.635 18.9465 836.768 18.4681 836.907C 17.9898 837.046 17.4301 837.19 17.1503 837.262C 16.8704 837.334 16.8704 837.334 16.7603 837.364C 16.6502 837.394 16.43 837.454 16.2352 837.51C 16.0404 837.567 15.871 837.62 15.5929 837.706C 15.3149 837.792 14.9283 837.91 14.4958 838.043C 14.0633 838.175 13.5849 838.322 13.2516 838.435C 12.9182 838.547 12.73 838.626 12.5127 838.712C 12.2955 838.798 12.0494 838.892 11.8873 838.953C 11.7253 839.015 11.6474 839.045 11.5053 839.101C 11.3631 839.157 11.1569 839.239 11.0033 839.297C 10.8498 839.354 10.749 839.386 10.6808 839.407C 10.6125 839.429 10.5769 839.44 10.5465 839.467C 10.5161 839.494 10.4909 839.536 10.4485 839.571C 10.4062 839.605 10.3466 839.632 10.2834 839.66C 10.2201 839.688 10.1532 839.718 10.0916 839.734C 10.03 839.751 9.97375 839.754 9.93778 839.757C 9.9018 839.759 9.88611 839.759 9.8434 839.761C 9.80069 839.763 9.73097 839.766 9.66972 839.759C 9.60847 839.752 9.55569 839.734 9.51956 839.722C 9.48343 839.71 9.46394 839.703 9.41153 839.683C 9.35912 839.664 9.2738 839.632 9.20644 839.588C 9.13907 839.544 9.08968 839.488 9.05363 839.447C 9.01759 839.406 8.99491 839.379 8.95919 839.338C 8.92347 839.296 8.87472 839.239 8.83241 839.175C 8.79009 839.111 8.75421 839.039 8.72303 838.94C 8.69185 838.84 8.66537 838.712 8.64039 838.592C 8.61542 838.471 8.59194 838.358 8.58412 838.28C 8.5763 838.202 8.58412 838.16 8.58815 837.995C 8.59218 837.829 8.59241 837.54 8.59262 837.268C 8.59282 836.997 8.59301 836.743 8.60569 836.579C 8.61838 836.414 8.64357 836.339 8.66276 836.24C 8.68194 836.141 8.69514 836.018 8.70324 835.942C 8.71134 835.866 8.71435 835.838 8.71773 835.809C 8.72111 835.781 8.72486 835.751 8.7287 835.722C 8.73255 835.693 8.73648 835.664 8.73845 835.65C 8.74042 835.636 8.74042 835.636 8.74042 835.636C 8.74042 835.636 8.74042 835.636 8.74042 835.636C 8.74042 835.636 8.74042 835.636 8.73667 835.62C 8.73292 835.603 8.72542 835.57 8.71843 835.54C 8.71144 835.51 8.70495 835.481 8.70954 835.452C 8.71412 835.423 8.72977 835.392 8.73958 835.373C 8.7494 835.354 8.75338 835.347 8.75819 835.339C 8.76301 835.33 8.76866 835.322 8.77479 835.314C 8.78093 835.306 8.78755 835.298 8.7913 835.292C 8.79505 835.286 8.79593 835.281 8.79676 835.276C 8.79759 835.272 8.79838 835.268 8.79907 835.264C 8.79977 835.261 8.80037 835.258 8.81775 835.178C 8.83514 835.098 8.86931 834.94 8.90868 834.787C 8.94806 834.633 8.99264 834.484 9.03789 834.344C 9.08315 834.204 9.12907 834.073 9.15204 834.008C 9.175 833.943 9.175 833.943 9.16127 833.884C 9.14755 833.825 9.12009 833.708 9.10637 833.649C 9.09264 833.59 9.09264 833.59 9.09264 833.59C 9.09264 833.59 9.09264 833.59 9.13352 833.573C 9.1744 833.555 9.25616 833.519 9.29704 833.502C 9.33792 833.484 9.33792 833.484 9.35287 833.447C 9.36782 833.409 9.39773 833.334 9.42762 833.259C 9.4575 833.184 9.48736 833.108 9.50273 833.069C 9.5181 833.03 9.51898 833.028 9.51942 833.027C 9.51986 833.026 9.51986 833.026 9.48306 833.051C 9.44625 833.077 9.37264 833.128 9.33583 833.153C 9.29903 833.179 9.29903 833.179 9.29903 833.179C 9.29903 833.179 9.29903 833.179 9.24507 833.132C 9.19111 833.085 9.08319 832.992 9.02924 832.946C 8.97528 832.899 8.97528 832.899 8.97528 832.899C 8.97528 832.899 8.97528 832.899 9.03495 832.835C 9.09463 832.771 9.21398 832.643 9.3418 832.576C 9.46963 832.51 9.60593 832.505 9.68 832.46C 9.75407 832.416 9.76593 832.333 9.8084 832.24C 9.85088 832.146 9.92398 832.043 9.99343 831.956C 10.0629 831.868 10.1287 831.796 10.1595 831.753C 10.1903 831.71 10.1862 831.696 10.1826 831.682C 10.179 831.669 10.1759 831.654 10.1731 831.639C 10.1702 831.623 10.1677 831.607 10.1615 831.564C 10.1553 831.52 10.1455 831.45 10.1408 831.373C 10.136 831.295 10.1363 831.209 10.1528 831.115C 10.1693 831.022 10.2019 830.92 10.2183 830.87C 10.2346 830.819 10.2346 830.819 10.2887 830.832C 10.3429 830.846 10.4513 830.872 10.5054 830.886C 10.5596 830.899 10.5596 830.899 10.5596 830.899C 10.5596 830.899 10.5596 830.899 10.5677 830.901C 10.5757 830.903 10.5919 830.907 10.6 830.909C 10.6081 830.911 10.6081 830.911 10.6081 830.911C 10.6081 830.911 10.6081 830.911 10.5984 830.894C 10.5887 830.877 10.5694 830.843 10.5598 830.826C 10.5501 830.809 10.5501 830.809 10.55 830.807C 10.5498 830.806 10.5495 830.803 10.5492 830.8C 10.5488 830.797 10.5485 830.794 10.5482 830.792C 10.5478 830.789 10.5475 830.786 10.5473 830.785C 10.5471 830.783 10.5471 830.783 10.637 830.68C 10.7269 830.577 10.9066 830.371 10.9965 830.268C 11.0864 830.164 11.0864 830.164 11.0864 830.164C 11.0864 830.164 11.0864 830.164 11.1769 830.105C 11.2675 830.045 11.4485 829.926 11.5391 829.866C 11.6296 829.806 11.6296 829.806 11.6296 829.806C 11.6296 829.806 11.6296 829.806 11.6548 829.832C 11.68 829.858 11.7304 829.909 11.7556 829.935C 11.7808 829.961 11.7808 829.961 11.7808 829.961C 11.7808 829.961 11.7808 829.961 11.8384 829.868C 11.8961 829.775 12.0113 829.588 12.0689 829.495C 12.1265 829.402 12.1265 829.402 12.1265 829.402C 12.1265 829.402 12.1265 829.402 12.2109 829.326C 12.2953 829.25 12.464 829.098 12.5484 829.021C 12.6328 828.945 12.6328 828.945 12.6328 828.945C 12.6328 828.945 12.6328 828.945 12.6931 829.001C 12.7535 829.057 12.8743 829.169 12.9346 829.224C 12.995 829.28 12.995 829.28 13.0091 829.275C 13.0233 829.269 13.0516 829.258 13.0799 829.248C 13.1082 829.238 13.1366 829.228 13.165 829.219C 13.1934 829.21 13.2218 829.201 13.2359 829.197C 13.2501 829.193 13.2501 829.193 13.2409 829.154C 13.2316 829.114 13.213 829.036 13.2037 828.997C 13.1944 828.958 13.1944 828.958 13.1944 828.958C 13.1944 828.958 13.1944 828.958 13.3174 828.913C 13.4403 828.868 13.6862 828.779 13.8091 828.734C 13.9321 828.689 13.9321 828.689 13.9321 828.689C 13.9321 828.689 13.9321 828.689 13.9846 828.746C 14.0371 828.803 14.1422 828.916 14.1947 828.973C 14.2472 829.029 14.2472 829.029 14.2472 829.029C 14.2472 829.029 14.2472 829.029 14.2657 829.049C 14.2842 829.069 14.3211 829.109 14.3396 829.129C 14.3581 829.149 14.3581 829.149 14.3581 829.149C 14.3581 829.149 14.3581 829.149 14.3816 829.128C 14.4052 829.108 14.4523 829.067 14.4759 829.046C 14.4994 829.025 14.4994 829.025 14.4994 829.025C 14.4994 829.025 14.4994 829.025 14.5481 828.983C 14.5969 828.94 14.6943 828.855 14.743 828.812C 14.7917 828.769 14.7917 828.769 14.7917 828.769C 14.7917 828.769 14.7917 828.769 14.843 828.808C 14.8944 828.846 14.9971 828.924 15.0485 828.962C 15.0999 829.001 15.0999 829.001 15.0999 829.001C 15.0999 829.001 15.0999 829.001 15.2275 828.954C 15.3551 828.908 15.6104 828.816 15.7381 828.769C 15.8657 828.723 15.8657 828.723 15.8657 828.723C 15.8657 828.723 15.8657 828.723 15.9166 828.779C 15.9675 828.834 16.0694 828.945 16.1203 829.001C 16.1713 829.056 16.1713 829.056 16.1713 829.056C 16.1713 829.056 16.1713 829.056 16.2075 829.065C 16.2438 829.073 16.3163 829.09 16.3526 829.099C 16.3889 829.107 16.3889 829.107 16.3889 829.107C 16.3889 829.107 16.3889 829.107 16.4313 829.069C 16.4738 829.03 16.5586 828.953 16.601 828.914C 16.6435 828.876 16.6435 828.876 16.6435 828.876C 16.6435 828.876 16.6435 828.876 16.682 828.906C 16.7206 828.937 16.7977 828.998 16.8363 829.029C 16.8749 829.059 16.8749 829.059 16.8882 829.057C 16.9016 829.054 16.9283 829.049 16.9569 829.045C 16.9855 829.041 17.0159 829.038 17.0484 829.035C 17.0808 829.033 17.1153 829.033 17.1644 829.031C 17.2135 829.03 17.2773 829.029 17.3306 829.027C 17.3838 829.026 17.4265 829.025 17.4884 829.032C 17.5504 829.039 17.6317 829.055 17.6723 829.063C 17.7129 829.07 17.7129 829.07 17.7039 829.121C 17.695 829.172 17.677 829.274 17.668 829.326C 17.659 829.377 17.659 829.377 17.6614 829.377C 17.6638 829.377 17.6686 829.377 17.6734 829.377C 17.6783 829.378 17.6832 829.378 17.6882 829.379C 17.6932 829.38 17.6983 829.381 17.7116 829.383C 17.7249 829.386 17.7464 829.39 17.7691 829.398C 17.7918 829.405 17.8156 829.417 17.8376 829.43C 17.8595 829.443 17.8796 829.458 17.8901 829.465C 17.9006 829.473 17.9015 829.473 17.9023 829.473C 17.9032 829.473 17.904 829.473 17.9049 829.473C 17.9057 829.473 17.9065 829.473 17.9255 829.475C 17.9445 829.476 17.9816 829.479 18.0272 829.483C 18.0727 829.487 18.1267 829.491 18.1861 829.508C 18.2455 829.524 18.3102 829.552 18.3678 829.576C 18.4253 829.601 18.4756 829.623 18.5185 829.649C 18.5615 829.675 18.5971 829.705 18.6345 829.738C 18.6719 829.771 18.7109 829.807 18.7305 829.826C 18.75 829.844 18.75 829.844 18.8025 829.892C 18.855 829.941 18.9599 830.038 19.0124 830.087C 19.0649 830.135 19.0649 830.135 19.0649 830.135C 19.0649 830.135 19.0649 830.135 19.0467 830.157C 19.0286 830.178 18.9924 830.221 18.9742 830.242C 18.9561 830.264 18.9561 830.264 19.0052 830.311C 19.0543 830.358 19.1525 830.451 19.2352 830.547C 19.3179 830.643 19.385 830.74 19.4606 830.866C 19.5361 830.991 19.6199 831.144 19.7297 831.345C 19.8395 831.545 19.9752 831.793 20.0718 832.023C 20.1684 832.254 20.2259 832.466 20.2738 832.644C 20.3216 832.822 20.3599 832.967 20.3931 833.093C 20.4263 833.218 20.4543 833.324 20.4847 833.451C 20.5151 833.577 20.5479 833.724 20.5725 833.887C 20.597 834.05 20.6133 834.229 20.6307 834.421C 20.6482 834.612 20.6668 834.817 20.6644 834.997C 20.6619 835.178 20.6385 835.334 20.5463 835.603"/>
</g>
</svg>