<?xml version="1.0" encoding="UTF-8" standalone="yes"?>
<!-- Created with sK1/UniConvertor (http://sk1project.org/) -->
<svg xmlns="http://www.w3.org/2000/svg" xmlns:xlink="http://www.w3.org/1999/xlink"
  width="595.276pt" height="841.89pt" viewBox="0 0 595.276 841.89"
  fill-rule="evenodd">
<g>
<path style="stroke:#4f0000; stroke-width:0.1; stroke-linejoin:round; stroke-linecap:round; fill:none" d="M 20.2618 837.346C 20.2251 836.571 20.2251 836.222 20.2042 835.926C 20.1834 835.63 20.1418 835.388 20.1139 835.226C 20.0859 835.064 20.0716 834.983 20.0586 834.91C 20.0456 834.836 20.0338 834.77 20.009 834.7C 19.9841 834.63 19.9462 834.555 19.9228 834.51C 19.8994 834.464 19.8906 834.447 19.8326 834.337C 19.7747 834.227 19.6676 834.024 19.511 833.885C 19.3543 833.746 19.1481 833.671 19.0205 833.624C 18.8928 833.578 18.8437 833.56 18.7856 833.537C 18.7275 833.513 18.6605 833.485 18.573 833.444C 18.4854 833.404 18.3774 833.352 18.3102 833.319C 18.2429 833.286 18.2163 833.274 18.1874 833.254C 18.1584 833.235 18.1271 833.21 18.1046 833.187C 18.082 833.164 18.0681 833.143 18.0162 833.065C 17.9644 832.988 17.8745 832.854 17.7729 832.747C 17.6713 832.64 17.5579 832.562 17.4266 832.441C 17.2953 832.321 17.1459 832.16 17.0694 832.077C 16.9928 831.994 16.989 831.99 16.9836 831.983C 16.9782 831.976 16.9713 831.966 16.9644 831.954C 16.9576 831.942 16.9507 831.928 16.9362 831.898C 16.9217 831.868 16.8996 831.823 16.892 831.78C 16.8844 831.736 16.8914 831.694 16.8959 831.655C 16.9004 831.616 16.9025 831.58 16.9054 831.53C 16.9083 831.48 16.9121 831.416 16.9123 831.373C 16.9125 831.33 16.909 831.307 16.9074 831.244C 16.9058 831.181 16.9062 831.078 16.9064 830.991C 16.9067 830.904 16.9069 830.833 16.9111 830.78C 16.9153 830.727 16.9236 830.692 16.9351 830.66C 16.9467 830.628 16.9616 830.599 16.978 830.567C 16.9943 830.535 17.0122 830.5 17.0271 830.483C 17.0421 830.466 17.054 830.468 17.0826 830.434C 17.1112 830.4 17.1565 830.33 17.1944 830.272C 17.2323 830.213 17.2628 830.167 17.2822 830.132C 17.3016 830.098 17.3098 830.076 17.3162 830.056C 17.3226 830.035 17.3271 830.015 17.3321 829.992C 17.3372 829.97 17.3427 829.946 17.3436 829.931C 17.3445 829.916 17.3409 829.911 17.3405 829.887C 17.34 829.862 17.3428 829.819 17.3457 829.774C 17.3486 829.729 17.3516 829.681 17.3541 829.642C 17.3566 829.602 17.3586 829.571 17.3654 829.539C 17.3722 829.507 17.3838 829.475 17.3979 829.435C 17.4121 829.395 17.4287 829.349 17.452 829.31C 17.4753 829.271 17.5053 829.24 17.5329 829.211C 17.5606 829.182 17.5859 829.156 17.61 829.131C 17.6341 829.106 17.657 829.082 17.6968 829.044C 17.7366 829.006 17.7933 828.952 17.8201 828.924C 17.8469 828.896 17.8438 828.892 17.8422 828.89C 17.8405 828.888 17.8402 828.888 17.5033 828.889C 17.1664 828.89 16.4928 828.892 16.156 828.893C 15.8193 828.894 15.8193 828.894 15.6891 828.896C 15.5589 828.897 15.2986 828.9 15.1766 828.896C 15.0545 828.893 15.0708 828.884 14.9783 828.906C 14.8857 828.929 14.6844 828.982 14.4673 829.04C 14.2502 829.098 14.0173 829.16 13.9011 829.202C 13.7849 829.245 13.7853 829.268 13.7492 829.29C 13.713 829.312 13.6402 829.333 13.5558 829.357C 13.4714 829.381 13.3753 829.409 13.2592 829.447C 13.1431 829.485 13.007 829.534 12.922 829.579C 12.8371 829.624 12.8033 829.665 12.7274 829.757C 12.6515 829.849 12.5335 829.991 12.4299 830.136C 12.3263 830.28 12.237 830.425 12.1734 830.542C 12.1099 830.659 12.0722 830.747 12.0465 830.807C 12.0209 830.866 12.0073 830.898 11.9919 830.934C 11.9765 830.97 11.9593 831.011 11.9437 831.032C 11.9282 831.053 11.9143 831.056 11.8974 831.059C 11.8805 831.061 11.8606 831.065 11.8414 831.036C 11.8222 831.008 11.8037 830.948 11.7819 830.881C 11.7601 830.813 11.735 830.739 11.7125 830.672C 11.6901 830.605 11.6703 830.547 11.6414 830.481C 11.6126 830.416 11.5746 830.343 11.5315 830.276C 11.4885 830.209 11.4404 830.147 11.3836 830.074C 11.3269 830 11.2615 829.916 11.175 829.855C 11.0886 829.795 10.9811 829.759 10.8785 829.746C 10.7759 829.734 10.6782 829.745 10.6247 829.751C 10.5713 829.757 10.562 829.758 10.5618 829.758C 10.5616 829.759 10.5705 829.758 10.5466 829.763C 10.5228 829.769 10.4662 829.78 10.4343 829.786C 10.4024 829.793 10.3951 829.794 10.3784 829.802C 10.3618 829.81 10.3357 829.824 10.2691 829.846C 10.2026 829.869 10.0954 829.899 10.0232 829.92C 9.95091 829.941 9.91355 829.951 9.8619 829.953C 9.81025 829.954 9.74433 829.945 9.7083 829.944C 9.67226 829.942 9.66613 829.947 9.65329 829.957C 9.64045 829.966 9.62091 829.982 9.60223 830.019C 9.58354 830.057 9.56571 830.118 9.5576 830.187C 9.54949 830.256 9.55109 830.335 9.55333 830.445C 9.55557 830.556 9.55845 830.7 9.58288 830.825C 9.6073 830.951 9.65326 831.058 9.67624 831.112C 9.69922 831.166 9.69922 831.166 9.71804 831.235C 9.73686 831.304 9.77449 831.442 9.82109 831.589C 9.86769 831.735 9.92326 831.891 10.0113 832.015C 10.0994 832.139 10.22 832.23 10.3123 832.3C 10.4047 832.37 10.4687 832.418 10.527 832.471C 10.5853 832.523 10.6378 832.58 10.6996 832.63C 10.7614 832.681 10.8324 832.725 10.8696 832.748C 10.9068 832.771 10.91 832.773 10.9292 832.782C 10.9484 832.792 10.9836 832.809 11.0016 832.818C 11.0196 832.828 11.0204 832.83 11.0219 832.835C 11.0233 832.839 11.0255 832.845 11.019 832.856C 11.0125 832.867 10.9973 832.883 10.9873 832.894C 10.9773 832.904 10.9725 832.908 10.951 832.927C 10.9296 832.947 10.8914 832.981 10.8616 833.007C 10.8319 833.033 10.8106 833.051 10.7977 833.062C 10.7848 833.073 10.7802 833.077 10.7548 833.098C 10.7294 833.12 10.6831 833.159 10.5934 833.244C 10.5037 833.329 10.3705 833.461 10.2721 833.566C 10.1737 833.672 10.1101 833.752 10.0121 833.876C 9.91413 833.999 9.78169 834.166 9.69116 834.337C 9.60063 834.507 9.552 834.681 9.50067 834.864C 9.44934 835.048 9.39532 835.241 9.35622 835.38C 9.31712 835.52 9.29294 835.606 9.26774 835.697C 9.24255 835.788 9.21634 835.884 9.19773 835.997C 9.17913 836.111 9.16813 836.242 9.15623 836.384C 9.14432 836.527 9.13151 836.679 9.13218 836.819C 9.13285 836.958 9.14699 837.084 9.15954 837.193C 9.17208 837.303 9.18303 837.397 9.19282 837.48C 9.20262 837.564 9.21126 837.637 9.21874 837.701C 9.22621 837.765 9.23251 837.818 9.24433 837.881C 9.25616 837.944 9.27351 838.017 9.29841 838.121C 9.32331 838.225 9.35577 838.361 9.39788 838.481C 9.44 838.602 9.49178 838.707 9.56878 838.862C 9.64579 839.017 9.74801 839.221 9.82165 839.369C 9.89529 839.516 9.94034 839.606 9.97478 839.675C 10.0092 839.743 10.033 839.791 10.0537 839.823C 10.0743 839.855 10.0918 839.872 10.1006 839.88C 10.1093 839.888 10.1093 839.888 10.3741 839.888C 10.6388 839.888 11.1682 839.888 11.4329 839.888C 11.6977 839.888 11.6977 839.888 11.7003 839.887C 11.7029 839.887 11.7082 839.885 11.714 839.883C 11.7197 839.881 11.7259 839.878 11.7321 839.875C 11.7382 839.871 11.7444 839.867 11.7592 839.856C 11.7741 839.844 11.7977 839.827 11.8107 839.802C 11.8237 839.777 11.8262 839.744 11.8293 839.698C 11.8323 839.652 11.836 839.593 11.8382 839.557C 11.8404 839.521 11.8411 839.509 11.8424 839.486C 11.8436 839.462 11.8455 839.426 11.8448 839.385C 11.8441 839.344 11.8408 839.297 11.8386 839.267C 11.8365 839.236 11.8355 839.222 11.8344 839.206C 11.8332 839.191 11.8319 839.173 11.8294 839.152C 11.827 839.132 11.8234 839.11 11.8177 839.074C 11.8119 839.038 11.804 838.989 11.7948 838.955C 11.7855 838.92 11.7749 838.901 11.767 838.879C 11.7592 838.857 11.7541 838.832 11.75 838.812C 11.746 838.793 11.7429 838.778 11.7408 838.761C 11.7388 838.745 11.7377 838.728 11.7507 838.672C 11.7637 838.615 11.7906 838.52 11.8256 838.396C 11.8605 838.271 11.9034 838.119 11.9328 838.041C 11.9622 837.962 11.9781 837.958 11.9861 837.927C 11.9941 837.896 11.9942 837.838 11.9944 837.79C 11.9945 837.741 11.9946 837.701 11.9909 837.668C 11.9872 837.635 11.9798 837.609 11.9832 837.592C 11.9865 837.575 12.0008 837.566 12.0169 837.556C 12.033 837.546 12.051 837.535 12.0764 837.544C 12.1017 837.553 12.1345 837.582 12.1729 837.611C 12.2114 837.64 12.2556 837.67 12.2858 837.69C 12.316 837.711 12.3322 837.721 12.3656 837.739C 12.3989 837.757 12.4494 837.781 12.525 837.818C 12.6007 837.855 12.7016 837.904 12.7847 837.945C 12.8678 837.985 12.9332 838.017 13.0047 838.044C 13.0762 838.071 13.1538 838.092 13.2703 838.125C 13.3868 838.158 13.5422 838.202 13.6949 838.245C 13.8476 838.287 13.9976 838.33 14.1102 838.361C 14.2227 838.393 14.2977 838.414 14.3612 838.426C 14.4246 838.439 14.4766 838.442 14.5206 838.445C 14.5645 838.448 14.6006 838.451 14.6469 838.452C 14.6932 838.454 14.7498 838.456 14.8178 838.464C 14.8857 838.473 14.9651 838.489 15.0349 838.503C 15.1046 838.518 15.1647 838.53 15.2157 838.543C 15.2667 838.556 15.3086 838.57 15.3479 838.594C 15.3871 838.617 15.4238 838.649 15.453 838.675C 15.4823 838.701 15.5042 838.72 15.5208 838.738C 15.5375 838.757 15.5489 838.775 15.5615 838.795C 15.574 838.815 15.5878 838.836 15.6248 838.894C 15.6619 838.953 15.7224 839.047 15.7795 839.134C 15.8367 839.221 15.8904 839.301 15.9264 839.353C 15.9623 839.406 15.9805 839.431 16.0036 839.464C 16.0267 839.496 16.0548 839.535 16.0909 839.581C 16.1271 839.627 16.1713 839.679 16.2281 839.731C 16.2849 839.784 16.3544 839.836 16.3891 839.862C 16.4238 839.888 16.4238 839.888 16.8744 839.888C 17.3251 839.888 18.2264 839.888 18.677 839.888C 19.1277 839.888 19.1277 839.888 19.1277 839.888C 19.1277 839.888 19.1277 839.888 19.1276 839.886C 19.1275 839.883 19.1273 839.879 19.1273 839.876C 19.1272 839.874 19.1272 839.874 19.1283 839.866C 19.1293 839.858 19.1315 839.841 19.1307 839.823C 19.13 839.805 19.1264 839.784 19.1212 839.765C 19.1159 839.746 19.1089 839.728 19.09 839.68C 19.0711 839.632 19.0404 839.554 19.0049 839.478C 18.9695 839.403 18.9294 839.331 18.8766 839.266C 18.8239 839.202 18.7586 839.146 18.7237 839.117C 18.6887 839.087 18.6841 839.083 18.6815 839.076C 18.6788 839.07 18.6783 839.061 18.676 839.051C 18.6737 839.042 18.6697 839.031 18.6959 839.034C 18.7222 839.038 18.7787 839.055 18.8276 839.05C 18.8765 839.045 18.9177 839.019 18.9585 838.994C 18.9992 838.969 19.0396 838.946 19.1183 838.901C 19.197 838.857 19.314 838.79 19.3812 838.721C 19.4484 838.651 19.4658 838.578 19.4744 838.481C 19.4831 838.384 19.483 838.264 19.4829 838.182C 19.4828 838.099 19.4828 838.055 19.4767 838.01C 19.4707 837.966 19.4587 837.921 19.4493 837.877C 19.4399 837.832 19.4332 837.788 19.4282 837.763C 19.4231 837.738 19.4198 837.733 19.4132 837.705C 19.4066 837.677 19.3968 837.625 19.3901 837.585C 19.3834 837.544 19.3799 837.515 19.3857 837.495C 19.3915 837.476 19.4067 837.465 19.4156 837.459C 19.4245 837.453 19.4271 837.451 19.4346 837.448C 19.4421 837.445 19.4546 837.442 19.486 837.455C 19.5175 837.468 19.5679 837.499 19.6518 837.616C 19.7358 837.733 19.8532 837.937 19.9374 838.066C 20.0216 838.195 20.0726 838.25 20.0998 838.279C 20.127 838.308 20.1304 838.312 20.1393 838.315C 20.1482 838.319 20.1625 838.322 20.1748 838.321C 20.1871 838.32 20.1974 838.314 20.2118 838.306C 20.2262 838.298 20.2447 838.287 20.2554 838.262C 20.2661 838.237 20.2689 838.198 20.2711 838.167C 20.2733 838.137 20.2749 838.116 20.2792 838.058C 20.2836 838 20.2908 837.905 20.2929 837.899C 20.2949 837.893 20.2917 837.976 20.2618 837.346"/>
</g>
</svg>