<?xml version="1.0" encoding="UTF-8" standalone="yes"?>
<!-- Created with sK1/UniConvertor (http://sk1project.org/) -->
<svg xmlns="http://www.w3.org/2000/svg" xmlns:xlink="http://www.w3.org/1999/xlink"
  width="595.276pt" height="841.89pt" viewBox="0 0 595.276 841.89"
  fill-rule="evenodd">
<g>
<path style="stroke:#00ff00; stroke-width:0.1; stroke-linejoin:round; stroke-linecap:round; fill:none" d="M 18.1257 831.057C 18.133 831.075 18.137 831.084 18.1404 831.091C 18.1439 831.099 18.1469 831.105 18.1485 831.108C 18.1501 831.112 18.1504 831.113 18.1507 831.113C 18.1511 831.114 18.1514 831.115 18.1517 831.115C 18.1521 831.116 18.1524 831.117 18.1607 831.135C 18.1691 831.152 18.1854 831.187 18.205 831.219C 18.2246 831.252 18.2476 831.282 18.2723 831.311C 18.297 831.34 18.3235 831.368 18.3456 831.391C 18.3676 831.414 18.3852 831.433 18.4032 831.451C 18.4212 831.469 18.4397 831.486 18.4583 831.503C 18.477 831.521 18.4959 831.538 18.514 831.555C 18.5322 831.571 18.5498 831.587 18.5658 831.605C 18.5817 831.623 18.5961 831.643 18.6106 831.662C 18.625 831.682 18.6394 831.701 18.6561 831.723C 18.6728 831.746 18.6919 831.771 18.7114 831.796C 18.731 831.821 18.751 831.845 18.7674 831.872C 18.7837 831.9 18.7964 831.93 18.8155 831.975C 18.8346 832.021 18.8601 832.082 18.8765 832.144C 18.8929 832.207 18.9 832.271 18.9049 832.335C 18.9097 832.399 18.9122 832.464 18.915 832.536C 18.9177 832.608 18.9208 832.687 18.9227 832.767C 18.9246 832.846 18.9254 832.925 18.9268 833.005C 18.9282 833.084 18.9303 833.164 18.9334 833.276C 18.9364 833.388 18.9403 833.534 18.9449 833.679C 18.9494 833.825 18.9546 833.97 18.9572 834.116C 18.9598 834.261 18.96 834.407 18.9601 834.54C 18.9602 834.673 18.9603 834.793 18.9636 834.914C 18.9668 835.034 18.9731 835.154 18.978 835.274C 18.9829 835.395 18.9864 835.515 18.9896 835.627C 18.9929 835.739 18.9959 835.844 19.0012 835.948C 19.0065 836.052 19.014 836.156 19.0211 836.26C 19.0281 836.364 19.0347 836.468 19.0399 836.552C 19.0452 836.636 19.0492 836.699 19.0539 836.762C 19.0586 836.825 19.0641 836.889 19.0681 836.952C 19.0721 837.015 19.0747 837.079 19.0771 837.135C 19.0794 837.192 19.0815 837.242 19.0835 837.292C 19.0854 837.341 19.0872 837.391 19.0898 837.441C 19.0924 837.491 19.0957 837.54 19.1001 837.606C 19.1044 837.671 19.1098 837.752 19.1113 837.833C 19.1128 837.914 19.1104 837.994 19.1106 838.075C 19.1108 838.156 19.1135 838.237 19.1156 838.302C 19.1178 838.367 19.1195 838.415 19.118 838.464C 19.1165 838.513 19.112 838.563 19.11 838.612C 19.108 838.662 19.1085 838.711 19.1088 838.735C 19.1091 838.76 19.1091 838.76 19.1087 838.863C 19.1083 838.966 19.1075 839.172 19.1071 839.275C 19.1067 839.378 19.1067 839.378 19.1037 839.422C 19.1007 839.465 19.0946 839.551 19.0902 839.639C 19.0858 839.727 19.083 839.815 19.0787 839.903C 19.0744 839.99 19.0686 840.076 19.0665 840.143C 19.0644 840.211 19.0659 840.26 19.0638 840.288C 19.0617 840.315 19.0559 840.322 19.0297 840.328C 19.0035 840.333 18.957 840.338 18.9321 840.34C 18.9071 840.342 18.9039 840.343 18.9006 840.342C 18.8973 840.342 18.894 840.342 18.8908 840.342C 18.8875 840.341 18.8842 840.341 18.867 840.341C 18.8498 840.34 18.8186 840.34 18.7874 840.339C 18.7562 840.338 18.725 840.337 18.6939 840.336C 18.6627 840.336 18.6316 840.335 18.5794 840.334C 18.5273 840.334 18.454 840.332 18.3807 840.333C 18.3074 840.333 18.2341 840.335 18.1609 840.336C 18.0876 840.337 18.0143 840.337 17.8775 840.338C 17.7408 840.338 17.5405 840.338 17.3403 840.338C 17.1401 840.339 16.9398 840.339 16.7396 840.339C 16.5394 840.339 16.3392 840.339 16.2265 840.34C 16.1138 840.34 16.0886 840.34 16.0635 840.339C 16.0384 840.338 16.0133 840.337 15.9882 840.336C 15.9631 840.336 15.9381 840.336 15.91 840.336C 15.8819 840.336 15.8508 840.336 15.8197 840.336C 15.7886 840.336 15.7576 840.337 15.7265 840.337C 15.6954 840.337 15.6643 840.336 15.6411 840.335C 15.6179 840.335 15.6027 840.335 15.593 840.331C 15.5834 840.327 15.5794 840.32 15.5771 840.31C 15.5747 840.299 15.5741 840.285 15.573 840.26C 15.5718 840.235 15.5702 840.198 15.5679 840.162C 15.5656 840.125 15.5627 840.089 15.56 840.052C 15.5574 840.016 15.555 839.98 15.5656 839.635C 15.5762 839.29 15.5998 838.636 15.6096 837.98C 15.6193 837.323 15.6152 836.664 15.6193 836.006C 15.6234 835.348 15.6356 834.692 15.643 834.312C 15.6504 833.932 15.653 833.828 15.654 833.725C 15.655 833.621 15.6545 833.518 15.6573 833.414C 15.66 833.311 15.6661 833.208 15.6716 833.113C 15.6771 833.019 15.6822 832.933 15.6834 832.847C 15.6847 832.762 15.6822 832.675 15.6889 832.59C 15.6957 832.504 15.7116 832.419 15.7247 832.349C 15.7378 832.279 15.7481 832.224 15.7683 832.174C 15.7885 832.125 15.8186 832.081 15.8503 832.038C 15.8819 831.995 15.9151 831.952 15.9593 831.895C 16.0035 831.837 16.0588 831.766 16.1175 831.697C 16.1761 831.628 16.2382 831.56 16.2848 831.483C 16.3315 831.406 16.3627 831.318 16.3816 831.266C 16.4004 831.213 16.4069 831.195 16.4115 831.177C 16.4161 831.158 16.4189 831.139 16.4248 831.121C 16.4307 831.103 16.4395 831.086 16.444 831.078C 16.4484 831.069 16.4485 831.069 16.4485 831.069C 16.4485 831.069 16.4485 831.069 16.4485 831.069C 16.4486 831.069 16.4486 831.069 16.4486 831.069C 16.4487 831.069 16.4487 831.069 16.4564 831.019C 16.4641 830.97 16.4795 830.871 16.4872 830.822C 16.4949 830.772 16.4949 830.772 16.4961 830.762C 16.4973 830.751 16.4997 830.729 16.5035 830.678C 16.5073 830.626 16.5125 830.546 16.5162 830.471C 16.5199 830.396 16.522 830.327 16.5245 830.223C 16.527 830.118 16.5299 829.979 16.5322 829.853C 16.5345 829.728 16.5361 829.616 16.5396 829.494C 16.5431 829.371 16.5484 829.238 16.5518 829.138C 16.5551 829.039 16.5565 828.972 16.5582 828.872C 16.5599 828.772 16.562 828.638 16.5635 828.562C 16.565 828.486 16.5661 828.468 16.5674 828.444C 16.5687 828.42 16.5703 828.391 16.5709 828.373C 16.5715 828.355 16.571 828.349 16.5856 828.346C 16.6002 828.343 16.6298 828.342 16.6446 828.342C 16.6594 828.342 16.6594 828.342 16.8552 828.346C 17.051 828.349 17.4425 828.356 17.6433 828.359C 17.844 828.363 17.8539 828.363 17.8638 828.363C 17.8737 828.363 17.8836 828.363 17.8934 828.365C 17.9033 828.368 17.9132 828.372 17.9186 828.381C 17.924 828.39 17.925 828.404 17.9259 828.418C 17.9269 828.432 17.9278 828.446 17.9348 828.505C 17.9419 828.565 17.955 828.67 17.9632 828.772C 17.9714 828.874 17.9747 828.974 17.9808 829.16C 17.9869 829.346 17.996 829.62 17.9964 829.831C 17.9967 830.042 17.9884 830.192 17.9948 830.331C 18.0012 830.47 18.0223 830.598 18.0329 830.662C 18.0435 830.726 18.0435 830.726 18.0558 830.777C 18.0681 830.829 18.0927 830.932 18.105 830.983C 18.1174 831.034 18.1174 831.034 18.1174 831.034C 18.1174 831.034 18.1174 831.034 18.1195 831.04C 18.1216 831.046 18.1257 831.057 18.1257 831.057"/>
</g>
</svg>